# Blender 5.0.1
# www.blender.org
mtllib LeftHand.mtl
o hands:Lhand
v 0.003716 0.048600 0.064924
v -0.000235 0.045375 0.064217
v 0.004869 0.045120 0.070773
v 0.000596 0.058749 0.030664
v -0.000879 0.059415 0.023836
v -0.002207 0.054646 0.035063
v 0.023576 0.065037 0.028232
v 0.016108 0.064704 0.024142
v 0.019641 0.063066 0.027197
v 0.028800 0.069834 0.023018
v 0.026402 0.063287 0.038814
v 0.028904 0.066689 0.031989
v 0.045101 0.042207 0.091981
v 0.039050 0.034998 0.096721
v 0.043944 0.031461 0.101050
v 0.040159 0.066269 0.024646
v 0.047625 0.064864 0.021655
v 0.046811 0.067212 0.017393
v 0.054181 0.065278 0.018558
v 0.051851 0.066874 0.010725
v 0.053649 0.062290 0.028207
v 0.051177 0.063252 0.024457
v 0.062888 0.051407 0.058497
v 0.066832 0.054707 0.054019
v 0.062910 0.055900 0.051415
v 0.072108 0.041539 0.072849
v 0.069112 0.041948 0.073374
v 0.071667 0.030023 0.082805
v 0.061402 0.061240 0.005474
v 0.068378 0.054550 0.010198
v 0.067351 0.056727 0.006347
v 0.063497 0.058455 0.013539
v 0.071774 0.053719 0.003973
v 0.075316 0.051245 0.010247
v 0.074104 0.050993 0.014845
v 0.080117 0.048653 0.017908
v 0.005746 0.065815 -0.010051
v 0.012215 0.066024 0.017601
v 0.061679 0.058823 -0.007892
v 0.068619 0.054912 -0.002855
v 0.058566 0.059201 -0.016550
v -0.020603 0.003779 0.010207
v -0.016336 0.017590 0.004209
v -0.023433 0.013718 -0.001200
v -0.017575 -0.000457 0.022690
v -0.012241 -0.008047 0.040159
v -0.011677 -0.004440 0.036157
v -0.016948 0.025378 0.000758
v -0.004987 0.053039 0.023418
v 0.022087 0.068930 -0.034317
v 0.030469 0.068628 -0.029725
v 0.024481 0.069166 -0.049044
v 0.044221 0.063601 -0.056199
v 0.050948 0.060216 -0.045190
v 0.054815 0.051457 -0.055892
v 0.056514 0.053507 -0.049160
v -0.012918 0.036920 -0.045872
v -0.015058 0.042499 -0.022368
v -0.008010 0.047487 -0.049519
v 0.021294 0.049806 0.037702
v 0.019171 0.050205 0.036785
v 0.020924 0.045810 0.035175
v 0.045457 0.054036 0.031147
v 0.048452 0.056278 0.032979
v 0.045502 0.057251 0.030846
v 0.048323 0.052809 0.032564
v 0.078174 0.020407 0.078636
v 0.075049 0.029780 0.064725
v 0.079217 0.025687 0.075895
v 0.076498 0.021177 0.087410
v 0.070086 0.021346 0.087483
v 0.074756 0.018691 0.085751
v 0.066030 0.045585 0.017430
v 0.068963 0.041682 0.018957
v 0.066648 0.047990 0.017945
v 0.067669 0.048503 0.017579
v 0.008083 0.029151 0.063309
v 0.003674 0.026108 0.073786
v 0.004412 0.032966 0.058143
v 0.024527 0.047263 0.038293
v 0.031482 0.044906 0.035902
v 0.027948 0.045873 0.040469
v 0.052015 0.043647 0.025423
v 0.050205 0.047020 0.029761
v 0.048619 0.047330 0.028314
v 0.066586 0.039529 0.014238
v 0.068380 0.035954 0.011293
v 0.072617 0.034784 0.018797
v 0.068368 0.038735 -0.030208
v 0.072626 0.035393 -0.012437
v 0.065687 0.034028 -0.030860
v -0.010673 0.016541 0.007528
v -0.013711 0.005058 0.018587
v -0.003916 0.013469 0.003234
v -0.008280 0.015362 0.007524
v -0.006456 0.009907 0.009278
v 0.022020 0.055314 0.038562
v 0.023050 0.060924 0.034547
v 0.040915 0.063284 0.031035
v 0.037335 0.065240 0.037303
v 0.051013 0.061078 0.029437
v 0.066998 0.041682 0.073271
v 0.069289 0.033450 0.080252
v 0.071276 0.053579 0.048254
v 0.073473 0.050439 0.054640
v 0.071547 0.046915 0.041940
v 0.066916 0.053122 0.013480
v 0.065031 0.054679 0.015152
v 0.069185 0.051780 0.013942
v 0.091128 0.040129 0.030247
v 0.091844 0.037366 0.034601
v 0.091143 0.036703 0.028288
v 0.069515 0.052147 -0.007979
v 0.072969 0.046522 -0.011596
v 0.069934 0.045430 -0.021747
v 0.060932 0.047050 -0.048317
v 0.083046 0.036321 0.012977
v 0.079621 0.037205 0.005156
v 0.080732 0.040381 0.006027
v 0.087302 0.019803 0.060858
v 0.090652 0.019266 0.061603
v 0.089828 0.022047 0.061678
v 0.066257 0.049640 0.020855
v 0.063686 0.043994 0.023411
v 0.065818 0.047208 0.020924
v 0.061345 0.046648 0.062024
v 0.056738 0.050051 0.050262
v 0.029464 0.047477 0.066619
v 0.030769 0.047680 0.072742
v 0.028933 0.053065 0.064662
v 0.023703 0.050949 0.043286
v 0.023363 0.053851 0.043505
v 0.019876 0.052323 0.036110
v 0.017509 0.033064 0.064771
v 0.016381 0.035974 0.058478
v 0.017586 0.036645 0.066972
v 0.040504 0.065432 -0.054605
v 0.045586 0.064436 -0.028843
v 0.057922 0.064128 0.012060
v 0.072646 0.023096 0.070294
v 0.074647 0.019028 0.078489
v 0.069781 0.023059 0.070693
v 0.077302 0.038786 0.070246
v 0.077322 0.027617 0.080587
v 0.071915 0.024192 0.088026
v 0.076671 0.022700 0.087154
v 0.047369 0.027526 0.104466
v 0.050433 0.034985 0.095677
v 0.052498 0.020593 0.105998
v 0.049039 0.016870 0.102378
v 0.052445 0.019147 0.098917
v 0.048918 0.021303 0.108723
v 0.043538 0.035961 0.070455
v 0.040618 0.042839 0.058444
v 0.046237 0.040805 0.066232
v 0.036217 0.045740 0.035013
v 0.040387 0.048512 0.034396
v 0.038470 0.044724 0.047897
v 0.042858 0.019216 0.106393
v 0.036025 0.042387 0.058605
v 0.073262 0.048652 -0.006134
v 0.078306 0.049057 0.008798
v 0.092661 0.031982 0.046771
v 0.087750 0.036129 0.047478
v 0.092116 0.020869 0.061536
v 0.092082 0.016337 0.056444
v 0.095435 0.019016 0.058402
v 0.071726 0.034187 0.008459
v 0.076218 0.045326 -0.003979
v 0.080111 0.046404 0.007915
v 0.089058 0.042302 0.031936
v 0.075743 0.032770 0.017451
v 0.077392 0.034951 0.005321
v 0.011931 0.062023 0.028485
v 0.014974 0.055457 0.037349
v 0.015437 0.009867 0.095524
v 0.020093 0.013228 0.092161
v 0.019981 0.013406 0.097247
v 0.017309 0.017247 0.082315
v 0.018831 0.020559 0.080749
v 0.014801 0.030484 0.063127
v 0.013716 0.033521 0.057517
v 0.004495 0.063228 0.022976
v 0.010294 0.045873 0.070326
v 0.011165 0.011482 0.100227
v 0.008621 0.011771 0.097307
v -0.000795 -0.011137 0.021327
v 0.000035 -0.007343 0.028622
v 0.000965 -0.012334 0.031265
v -0.014963 -0.009038 0.033863
v -0.020027 -0.003833 0.020823
v -0.016380 -0.011594 0.027304
v -0.010707 0.027127 -0.052777
v -0.017250 0.032024 -0.037439
v -0.013687 -0.015128 0.020831
v -0.009099 -0.023558 0.039731
v -0.014292 -0.015358 0.025040
v -0.018555 -0.011607 0.019610
v 0.045895 0.029779 -0.058364
v 0.045100 0.036918 -0.067385
v 0.050690 0.032021 -0.058724
v 0.037740 0.034595 -0.068160
v 0.050550 0.028908 -0.052874
v 0.055437 0.036653 -0.057786
v 0.067945 0.032909 -0.020984
v 0.066849 0.030964 -0.009996
v 0.063535 0.029298 -0.018347
v 0.087281 0.017771 0.056277
v 0.060923 0.040291 0.016649
v 0.064775 0.038740 0.013115
v 0.064067 0.043793 0.017761
v 0.060620 0.042329 0.020670
v 0.066566 0.040429 0.043791
v 0.070245 0.042484 0.044103
v 0.073349 0.040652 0.050358
v 0.070707 0.018883 0.082476
v 0.067037 0.024157 0.071599
v 0.064831 0.025315 0.077476
v 0.061901 0.035061 0.061963
v 0.057880 0.043023 0.046275
v 0.059343 0.040155 0.052372
v 0.056456 0.046821 0.048742
v 0.059397 0.039505 0.058638
v 0.041077 0.046504 0.030436
v 0.045715 0.045644 0.027238
v 0.042812 0.051764 0.034344
v 0.043383 0.051089 0.043172
v 0.046273 0.047415 0.060101
v 0.048471 0.043176 0.067737
v 0.048694 0.030018 0.081836
v 0.052716 0.029075 0.089727
v 0.052737 0.021273 0.095545
v 0.048288 0.017399 0.097773
v 0.044070 0.017033 0.101180
v 0.030174 0.045489 0.060891
v 0.032994 0.042566 0.062544
v 0.031713 0.042030 0.068836
v 0.017164 0.044139 0.036499
v 0.014373 0.039760 0.032667
v 0.017376 0.011519 0.091123
v 0.000500 0.034561 0.059392
v 0.003233 0.025327 0.078011
v -0.005753 0.034009 0.014308
v 0.000468 0.033583 0.019227
v -0.003946 0.036581 0.022461
v -0.008406 0.019572 0.007145
v -0.014016 0.010015 0.010823
v -0.006219 -0.006332 0.040220
v -0.004284 -0.004125 0.035982
v -0.008622 0.001178 0.028801
v -0.010655 -0.010988 0.010123
v -0.006000 -0.010932 0.013371
v -0.003681 -0.015047 0.019512
v 0.005761 0.034170 0.083863
v 0.009724 0.035390 0.084356
v 0.004805 0.037227 0.079759
v 0.004165 0.029986 0.085674
v 0.002702 0.034580 0.079209
v 0.006153 0.023133 0.076145
v 0.017670 0.024817 0.076074
v 0.018357 0.028510 0.073386
v 0.018865 0.027583 0.077510
v 0.018326 0.030805 0.079318
v 0.000834 0.033380 0.072970
v 0.005798 0.016042 0.092918
v 0.020960 0.019433 0.089476
v 0.008332 0.011992 0.092383
v 0.012412 0.010800 0.091339
v 0.021131 0.017814 0.092999
v 0.021241 0.016052 0.090974
v -0.002842 0.041520 0.050429
v -0.000427 0.035675 0.063919
v -0.002231 0.043528 0.055797
v -0.000760 0.037830 0.044432
v 0.014810 0.038384 0.048276
v 0.032323 0.058653 0.067250
v 0.035091 0.060065 0.067590
v 0.028141 0.059314 0.052735
v 0.029700 0.045222 0.049564
v 0.032756 0.044551 0.043596
v 0.044187 0.056995 0.043481
v 0.047153 0.056292 0.063216
v 0.049331 0.050103 0.071314
v 0.044910 0.059283 0.064852
v 0.039388 0.063175 0.051947
v 0.042460 0.060299 0.065976
v 0.035969 0.058202 0.070910
v 0.039616 0.041579 0.091857
v 0.037010 0.042849 0.088106
v 0.038680 0.023965 0.102069
v 0.033128 0.039679 0.081416
v 0.051548 0.037900 0.082585
v 0.051151 0.041674 0.085075
v 0.046393 0.024464 0.086401
v 0.040072 0.028853 0.083026
v 0.045553 0.028969 0.081528
v 0.050561 0.031972 0.082965
v 0.040462 0.021707 0.105696
v 0.041504 0.018498 0.100935
v 0.041496 0.019696 0.096164
v 0.050851 0.019914 0.094245
v 0.054014 0.022056 0.103125
v 0.043902 0.021734 0.108660
v 0.073706 0.045220 0.065230
v 0.076673 0.018511 0.081528
v 0.079399 0.021396 0.082695
v 0.078991 0.027873 0.076531
v 0.086000 0.040013 0.041634
v 0.091580 0.035295 0.042056
v 0.082385 0.024508 0.052759
v 0.076285 0.036994 0.033066
v 0.081081 0.027356 0.044402
v 0.091138 0.024081 0.040561
v 0.084768 0.025240 0.039339
v 0.086640 0.026090 0.036177
v 0.094235 0.030001 0.041550
v 0.086003 0.021143 0.045391
v 0.090412 0.020572 0.044709
v 0.093524 0.027723 0.039961
v 0.086115 0.026104 0.057920
v 0.085317 0.020464 0.058702
v 0.084397 0.020588 0.054673
v 0.090153 0.017373 0.051184
v 0.094822 0.018728 0.051650
v 0.093558 0.016794 0.054140
v 0.082601 0.046243 0.031803
v 0.084430 0.046054 0.027918
v 0.074481 0.049498 0.019513
v 0.079752 0.040545 0.038436
v 0.071243 0.046905 0.021069
v 0.071390 0.042753 0.023214
v 0.080507 0.030637 0.028351
v 0.078015 0.032292 0.029709
v 0.081784 0.033460 0.016653
v 0.085426 0.031490 0.025727
v 0.088561 0.033225 0.026541
v 0.056306 0.059133 0.038968
v 0.052347 0.053914 0.039863
v 0.053957 0.046222 0.041766
v 0.056611 0.042265 0.034442
v 0.060432 0.041253 0.032860
v 0.062277 0.042154 0.027514
v 0.064925 0.041247 0.037164
v 0.068430 0.054438 0.034872
v -0.006481 -0.020337 0.027990
v -0.004110 -0.021828 0.032112
v -0.002056 -0.018972 0.027624
v -0.000810 -0.007392 0.034127
v -0.001967 -0.002701 0.026644
v -0.008727 0.009395 0.012582
v -0.005924 0.002958 0.021256
v 0.072022 0.040723 -0.019085
v 0.078271 0.039566 -0.002543
v 0.058047 0.035063 0.011747
v 0.062400 0.033699 0.008526
v 0.043265 0.039748 0.022389
v 0.052965 0.036050 0.015239
v 0.056509 0.041821 0.022581
v 0.022707 0.040399 0.029094
v 0.034641 0.040965 0.027735
v 0.025472 0.044068 0.033765
v 0.039088 0.040816 0.025396
v -0.016243 0.003066 -0.022783
v -0.015982 0.012622 -0.037907
v -0.012365 0.009660 -0.038408
v -0.023202 0.005810 -0.015699
v -0.023995 0.018391 -0.015809
v -0.020757 0.026841 -0.029233
v -0.023697 0.011369 -0.019027
v -0.014589 0.042528 -0.009248
v -0.018113 0.036225 -0.020848
v 0.033739 0.070620 0.017848
v 0.069386 0.031486 -0.003078
v 0.076928 0.036005 -0.002880
v 0.060595 0.030908 0.003459
v 0.055853 0.031865 0.006720
v 0.050856 0.033149 0.010141
v 0.045895 0.034618 0.013842
v 0.041357 0.036260 0.017476
v 0.027443 0.036453 0.019264
v -0.009490 0.014506 -0.047162
v -0.010089 0.043549 0.008595
v -0.003472 0.056431 0.012120
v 0.059137 0.029755 -0.001302
v 0.049236 0.031425 0.005588
v 0.051594 0.029539 -0.004207
v 0.049542 0.028430 -0.009433
v 0.044407 0.029416 -0.005154
v 0.000016 0.062843 -0.016645
v 0.065861 0.049093 -0.030490
v 0.056912 0.031210 -0.047716
v 0.059452 0.029325 -0.035557
v 0.049828 0.026641 -0.045586
v 0.012651 0.015847 -0.011803
v 0.007112 0.008767 -0.012103
v 0.010352 0.008606 -0.021245
v 0.006473 0.011612 -0.007178
v 0.000472 0.008005 -0.041973
v 0.008420 0.009723 -0.042332
v 0.002848 0.003728 -0.027158
v -0.003688 0.007413 0.002256
v -0.003023 0.005409 -0.001315
v -0.005134 -0.011114 0.043757
v -0.008369 -0.014291 0.046530
v -0.008626 -0.018325 0.046136
v -0.015824 -0.005037 0.030075
v 0.005795 0.027715 0.005977
v 0.005622 0.018420 -0.001014
v 0.012837 0.024203 -0.004110
v -0.002701 0.032091 0.014580
v -0.004032 0.058882 -0.017150
v 0.026237 0.070647 -0.002851
v -0.005554 0.040292 0.025162
v 0.053018 0.062087 -0.019439
v 0.060721 0.036133 -0.047059
v 0.006893 0.037492 0.034577
v 0.000521 0.037873 0.031926
v 0.008509 0.033621 0.020218
v 0.009706 0.032779 0.014496
v -0.003251 0.040818 0.032027
v -0.004548 0.043475 0.031918
v 0.003746 0.014229 -0.052166
v -0.008196 0.000309 -0.021346
v -0.002129 0.000733 -0.016959
v -0.003487 0.004929 -0.034970
v -0.001916 0.018480 -0.055567
v 0.005636 0.028042 -0.065770
v 0.001327 0.006652 -0.006672
v -0.004338 0.024446 0.007578
v -0.008412 0.026168 0.007603
v -0.013609 0.030832 0.003787
v 0.005108 0.065652 -0.046548
v 0.054130 0.041544 -0.061076
v 0.012222 0.034825 0.022860
v 0.011954 0.015036 0.100342
v 0.019195 0.015877 0.099151
v 0.016469 0.027178 0.090172
v 0.012146 0.047178 0.066339
v 0.009587 0.049244 0.064224
v 0.010362 0.051180 0.055581
v 0.010354 0.055807 0.043045
v 0.007682 0.053569 0.050450
v 0.007797 0.061701 0.029265
v 0.055317 0.026879 -0.025147
v 0.024571 0.023009 -0.030338
v 0.041650 0.025037 -0.036428
v 0.030492 0.028152 -0.014559
v 0.025847 0.022153 -0.042654
v 0.040961 0.024669 -0.046157
v 0.025662 0.022933 -0.048490
v -0.000303 0.061099 -0.046990
v 0.041363 0.028372 -0.012601
v 0.037904 0.027456 -0.021634
v 0.024056 0.026548 -0.058407
v -0.000896 0.029921 0.011906
v -0.007605 0.031299 0.009955
v 0.008188 0.032501 0.087151
v 0.010994 0.014158 0.085094
v 0.019451 0.020636 -0.021978
v -0.002182 0.001681 -0.010702
v -0.004040 0.001639 0.000358
v 0.000680 -0.015035 0.029685
v -0.008369 -0.022346 0.043453
v -0.010492 -0.022117 0.043205
v -0.011121 -0.017581 0.045942
v -0.019890 0.019512 -0.033827
v -0.014895 0.021178 -0.045059
v -0.004777 -0.022663 0.038645
v -0.001622 -0.018616 0.038436
v -0.003728 -0.017788 0.042629
v -0.006531 -0.002384 -0.003655
v 0.013273 0.010550 -0.030887
v -0.006325 0.020313 -0.054654
v 0.020238 0.017990 -0.041212
v -0.016088 -0.011637 0.013547
v -0.009389 -0.010912 0.045398
v 0.006480 0.015512 0.086892
v 0.026070 0.052605 0.052485
v 0.083577 0.031994 0.051218
v 0.014831 0.027898 -0.064149
v 0.009962 0.017465 -0.054750
v 0.015165 0.041302 0.038766
v 0.017216 0.048875 0.039871
v -0.003321 0.041065 0.039848
v 0.007318 0.036192 0.043292
v 0.012682 0.022845 0.075259
v 0.013933 0.035320 0.083435
v 0.016183 0.036120 0.077647
v -0.000087 0.050410 0.051679
v 0.013485 0.051196 0.048561
v 0.013336 0.038407 0.043120
v 0.015864 0.046942 0.048401
v 0.038359 0.035833 0.071196
v 0.035653 0.034231 0.077845
v 0.034327 0.048572 0.079271
v 0.037677 0.046757 0.084604
v 0.043188 0.047934 0.084436
v 0.049825 0.040913 0.090162
v 0.050497 0.044452 0.074833
v 0.048005 0.034309 0.075842
v 0.051714 0.024200 0.105581
v 0.026471 0.047535 0.046136
v 0.044023 0.057393 0.033839
v 0.060471 0.039016 0.063848
v 0.067407 0.046464 0.066924
v 0.069117 0.049469 0.061807
v 0.074722 0.044236 0.051684
v 0.072686 0.032557 0.058249
v 0.067402 0.031690 0.059340
v 0.062995 0.035615 0.055839
v 0.063858 0.039184 0.071544
v 0.063599 0.040278 0.044147
v 0.067412 0.021176 0.080393
v 0.068324 0.024356 0.086431
v 0.077896 0.036857 0.068729
v 0.065401 0.058224 0.029543
v 0.063049 0.059147 0.018906
v 0.065413 0.053150 0.019322
v 0.084553 0.020624 0.049588
v 0.089558 0.041834 0.025296
v 0.085252 0.042016 0.015499
v -0.012484 -0.013852 0.043939
v -0.012480 -0.018639 0.042196
v -0.001854 -0.014211 0.040792
v -0.020918 -0.000521 0.013598
v -0.021267 -0.004810 0.011102
v -0.019956 -0.009034 0.014247
v -0.019466 -0.005892 0.005132
v -0.008241 -0.010667 0.010318
v -0.004616 -0.007678 0.011723
v -0.003329 -0.006759 0.015411
v -0.010594 0.004246 0.022150
v -0.025589 0.007741 -0.004520
v -0.003519 -0.003523 0.009994
v -0.003178 -0.001296 0.018699
v -0.008506 -0.002611 -0.007665
v -0.014048 -0.001073 -0.013797
v -0.025367 0.005819 -0.008245
v -0.021539 0.000118 -0.008579
v -0.006908 0.049896 -0.056891
v -0.009771 0.040926 -0.053694
v 0.020408 0.072380 -0.076250
v 0.042755 0.064530 -0.062657
v 0.049650 0.057293 -0.059089
v 0.047854 0.058001 -0.064974
v 0.000843 0.063378 -0.053573
v 0.045112 0.041555 -0.071241
v 0.049160 0.051727 -0.066538
v -0.007920 0.049828 -0.064392
v 0.004895 0.071108 -0.073848
v 0.011992 0.068081 -0.047083
v 0.026732 0.033467 -0.071902
v -0.008664 0.035724 -0.057847
v -0.006029 0.035659 -0.064250
v -0.001624 0.030074 -0.064561
v 0.041706 0.038260 -0.072127
v -0.000960 0.068423 -0.073438
v 0.045491 0.056620 -0.084221
v 0.046982 0.052613 -0.072549
v 0.043175 0.044713 -0.087455
v 0.045702 0.060146 -0.077653
v 0.043249 0.042381 -0.077011
v 0.039981 0.039171 -0.077915
v 0.037798 0.039137 -0.088419
v 0.024949 0.034869 -0.087182
v 0.009328 0.030461 -0.071979
v 0.006645 0.032036 -0.083674
v -0.006152 0.035569 -0.080030
v 0.001660 0.030536 -0.069789
v -0.004022 0.034296 -0.069294
v -0.007530 0.040115 -0.068667
v -0.009642 0.041163 -0.078674
v -0.007410 0.061625 -0.074084
v 0.037379 0.068757 -0.074482
v 0.044111 0.063967 -0.076756
v -0.010761 0.051634 -0.076021
v 0.040236 0.066700 -0.081020
v 0.032475 0.070387 -0.079240
v 0.042952 0.063859 -0.081974
v -0.000894 0.032174 -0.081809
v 0.014247 0.031441 0.006827
v 0.017607 0.026123 -0.006338
v 0.021305 0.029195 -0.001691
v -0.009556 0.039521 0.011459
v 0.033500 0.042046 0.082462
v 0.052473 0.033533 0.094007
v 0.069080 0.043650 -0.028419
v 0.062886 0.041565 -0.045424
v -0.007460 -0.001336 -0.012096
v -0.023830 0.016996 -0.006158
v -0.013884 0.036695 0.002856
v -0.006612 0.046039 0.023218
v -0.005225 0.048202 0.031112
v 0.005859 0.021473 0.091690
v 0.009300 0.013084 0.099542
v 0.018789 0.053697 0.034925
v -0.025154 0.012142 -0.012710
v -0.021879 0.022798 -0.007783
v 0.016296 0.012503 0.101598
v 0.063643 0.045168 0.066360
v 0.068225 0.029697 0.062922
v 0.015709 0.052315 -0.080452
vn -0.3436 0.8641 0.3677
vn -0.9020 0.3174 0.2926
vn -0.3620 0.7373 0.5704
vn -0.4127 0.8556 0.3124
vn -0.6866 0.7224 0.0819
vn -0.8335 0.5069 0.2199
vn -0.4396 0.7861 0.4344
vn -0.2019 0.8800 0.4299
vn -0.4500 0.6057 0.6562
vn -0.1671 0.9753 0.1445
vn -0.5942 0.7509 0.2882
vn -0.1725 0.9498 0.2611
vn 0.1516 0.7320 0.6642
vn -0.7130 0.3962 0.5785
vn -0.1424 0.6280 0.7651
vn 0.4106 0.8506 0.3285
vn 0.2306 0.8066 0.5442
vn 0.2496 0.9387 0.2377
vn 0.3783 0.9151 0.1395
vn 0.2570 0.9644 -0.0626
vn -0.1299 0.9401 0.3151
vn -0.1079 0.8831 0.4565
vn -0.4449 0.7285 0.5209
vn 0.2814 0.9124 0.2973
vn -0.2688 0.8756 0.4012
vn 0.4657 0.6409 0.6102
vn 0.1343 0.7345 0.6652
vn 0.4316 0.6199 0.6553
vn 0.5265 0.8436 -0.1057
vn 0.5623 0.7819 0.2691
vn 0.5882 0.8085 0.0174
vn 0.7324 0.6768 0.0739
vn 0.6304 0.7636 -0.1395
vn 0.4617 0.8833 0.0807
vn 0.1980 0.9651 0.1716
vn 0.5643 0.8226 -0.0699
vn -0.3224 0.9463 0.0233
vn -0.2573 0.9626 0.0853
vn 0.5373 0.8310 -0.1441
vn 0.6258 0.7606 -0.1732
vn 0.5868 0.7982 -0.1362
vn -0.7480 0.4642 0.4744
vn -0.5845 0.3509 0.7316
vn -0.8328 0.3202 0.4516
vn -0.6517 0.6285 0.4247
vn -0.7505 0.4569 0.4775
vn -0.3914 0.7535 0.5282
vn -0.8329 0.2093 0.5123
vn -0.9053 0.4137 0.0962
vn -0.1305 0.9912 -0.0211
vn 0.1993 0.9776 -0.0673
vn 0.0463 0.9955 0.0830
vn 0.6063 0.7866 -0.1174
vn 0.6516 0.7393 -0.1701
vn 0.8129 0.4128 -0.4107
vn 0.7232 0.6381 -0.2642
vn -0.9261 0.2785 -0.2544
vn -0.8539 0.5161 -0.0668
vn -0.8820 0.4566 -0.1167
vn -0.6926 -0.4052 0.5968
vn 0.5579 0.1188 0.8214
vn 0.2273 -0.5963 0.7699
vn 0.3299 -0.3851 0.8619
vn -0.6383 0.4930 0.5912
vn 0.3191 0.7034 0.6351
vn -0.8440 -0.3057 0.4408
vn 0.6895 -0.5994 -0.4066
vn 0.6307 -0.6012 -0.4908
vn 0.9205 -0.2357 -0.3116
vn 0.4298 -0.4661 0.7733
vn -0.5096 -0.5453 0.6656
vn 0.0957 -0.8916 0.4426
vn -0.3126 -0.3646 0.8771
vn -0.8325 -0.3273 0.4470
vn -0.5140 -0.0512 0.8563
vn 0.9185 0.1387 0.3702
vn -0.3967 0.5991 0.6955
vn -0.0864 -0.8700 -0.4854
vn -0.5940 -0.7337 -0.3300
vn -0.1988 -0.9299 -0.3095
vn -0.5149 -0.7910 0.3305
vn 0.0160 -0.9576 0.2876
vn -0.3610 -0.9323 0.0221
vn -0.2080 -0.8559 0.4734
vn -0.7571 -0.5953 0.2692
vn -0.2441 -0.5653 0.7880
vn -0.6393 -0.5231 0.5637
vn -0.3381 -0.8340 0.4361
vn -0.7375 -0.6289 0.2461
vn 0.9108 -0.2604 -0.3204
vn 0.7688 -0.5846 -0.2591
vn 0.7650 -0.5941 -0.2486
vn -0.3024 0.4392 0.8460
vn -0.5362 0.7206 0.4397
vn 0.6474 -0.2143 0.7314
vn 0.4950 0.3752 0.7837
vn 0.8476 0.4140 0.3320
vn -0.8653 0.3159 0.3892
vn -0.8699 0.4269 0.2470
vn 0.7402 0.6642 0.1050
vn 0.2548 0.9570 0.1386
vn -0.4449 0.7959 0.4107
vn -0.4904 0.5534 0.6733
vn -0.3983 0.5577 0.7282
vn 0.6995 0.7147 -0.0030
vn 0.8386 0.5374 0.0893
vn 0.9612 -0.0609 -0.2689
vn 0.6278 0.5392 0.5614
vn 0.8962 0.3944 0.2031
vn 0.1335 0.8403 0.5254
vn 0.9203 0.3892 -0.0386
vn 0.9318 0.3622 0.0228
vn 0.8928 -0.2300 -0.3874
vn 0.6914 0.6899 -0.2146
vn 0.8522 0.4200 -0.3120
vn 0.8759 0.4274 -0.2240
vn 0.8657 0.3092 -0.3936
vn 0.7843 -0.4695 -0.4055
vn 0.8171 -0.4852 -0.3114
vn 0.9234 0.0588 -0.3793
vn -0.5356 -0.4009 0.7432
vn 0.0173 -0.7253 0.6883
vn -0.1127 0.4926 0.8629
vn 0.9683 -0.1317 -0.2125
vn 0.7753 -0.5917 -0.2210
vn 0.8929 -0.3936 0.2188
vn -0.8349 0.3284 0.4416
vn -0.8716 0.2309 0.4325
vn -0.9679 -0.2166 0.1273
vn -0.9200 0.1843 0.3458
vn -0.9275 0.2370 0.2891
vn -0.8766 -0.3687 0.3093
vn -0.9263 0.2327 0.2962
vn -0.7919 0.2931 0.5358
vn 0.9332 -0.2553 -0.2530
vn 0.9560 -0.2173 -0.1972
vn 0.9383 0.3347 0.0872
vn 0.3551 0.9347 -0.0124
vn 0.2963 0.9527 -0.0679
vn 0.4852 0.8735 -0.0392
vn 0.3279 -0.7288 -0.6011
vn -0.0272 -0.9343 -0.3554
vn -0.2175 -0.8449 -0.4887
vn 0.7954 0.4796 0.3704
vn 0.6134 0.5653 0.5515
vn 0.0280 0.4646 0.8851
vn 0.5942 0.5108 0.6213
vn 0.1711 0.6442 0.7455
vn 0.5072 0.6010 0.6177
vn 0.6428 -0.5464 0.5369
vn 0.2557 -0.9271 0.2740
vn 0.7202 -0.6878 -0.0907
vn 0.2043 -0.2112 0.9559
vn 0.1534 -0.8353 -0.5279
vn 0.4500 -0.8036 -0.3895
vn 0.6018 -0.6045 -0.5219
vn 0.4020 -0.9052 0.1378
vn 0.7189 -0.6912 0.0739
vn 0.4498 -0.8702 -0.2008
vn -0.2608 -0.7982 0.5430
vn -0.0997 -0.9587 -0.2665
vn 0.7445 0.6162 -0.2570
vn 0.6993 0.6900 -0.1865
vn 0.7769 0.5316 0.3374
vn 0.3309 0.7682 0.5480
vn 0.5757 0.5530 0.6023
vn 0.0288 -0.9702 0.2408
vn 0.9031 0.2124 0.3733
vn 0.0675 -0.9897 0.1260
vn 0.8727 0.3763 -0.3112
vn 0.8340 0.4594 -0.3056
vn 0.5972 0.7641 0.2439
vn -0.1557 -0.9832 -0.0950
vn 0.3708 -0.9239 -0.0948
vn 0.1038 0.8548 0.5084
vn 0.5908 0.6865 0.4238
vn 0.1663 -0.9822 0.0872
vn 0.7301 -0.6476 -0.2181
vn 0.7942 -0.5436 0.2717
vn 0.3320 -0.7288 -0.5988
vn 0.8889 -0.2716 -0.3690
vn 0.4050 -0.7751 -0.4849
vn 0.2565 -0.9030 -0.3446
vn -0.4145 0.9005 0.1315
vn 0.1610 0.8212 0.5475
vn -0.1959 -0.8055 0.5593
vn -0.6084 -0.7761 0.1656
vn 0.9432 -0.0772 -0.3231
vn 0.9685 0.2382 -0.0722
vn 0.9929 0.0494 0.1082
vn -0.9557 0.0198 0.2938
vn -0.9575 0.0516 0.2837
vn -0.9245 -0.3347 0.1822
vn -0.8417 -0.0989 -0.5307
vn -0.9165 0.2890 -0.2764
vn -0.3285 -0.8804 -0.3422
vn -0.5789 -0.8109 -0.0859
vn -0.7921 -0.6103 -0.0117
vn -0.8662 -0.4932 0.0807
vn 0.1409 -0.8774 -0.4586
vn 0.4849 -0.6221 -0.6147
vn 0.5294 -0.6436 -0.5528
vn 0.1724 -0.8761 -0.4502
vn 0.4045 -0.8473 -0.3442
vn 0.7542 -0.3785 -0.5365
vn 0.6412 -0.7448 -0.1848
vn 0.2933 -0.9559 0.0173
vn 0.4382 -0.8975 -0.0504
vn -0.4506 -0.8890 0.0819
vn 0.3590 -0.7473 0.5592
vn 0.1358 -0.6839 0.7168
vn 0.6316 -0.6448 0.4306
vn 0.3623 -0.9178 0.1627
vn 0.2752 -0.8554 -0.4388
vn 0.7182 -0.5869 -0.3739
vn 0.7848 -0.4156 -0.4597
vn -0.3896 -0.9207 -0.0225
vn -0.6893 -0.6606 -0.2974
vn -0.9637 -0.1772 0.1998
vn -0.8248 -0.5440 -0.1540
vn -0.6431 -0.7652 -0.0295
vn -0.8405 -0.5359 -0.0796
vn -0.9471 -0.2165 0.2369
vn -0.9567 -0.2706 0.1068
vn 0.5097 -0.6236 0.5927
vn 0.2028 -0.5841 0.7859
vn 0.9055 -0.4230 0.0330
vn 0.9101 -0.3722 -0.1823
vn 0.8536 -0.4206 -0.3074
vn 0.9233 -0.1778 -0.3403
vn 0.5838 -0.5926 -0.5549
vn 0.9672 -0.0987 -0.2342
vn 0.9160 -0.2776 -0.2897
vn -0.0008 -0.9142 -0.4053
vn -0.2333 -0.9724 0.0008
vn -0.8491 -0.5257 0.0525
vn -0.5369 -0.8156 -0.2157
vn -0.8753 -0.4789 -0.0669
vn 0.7344 -0.5091 0.4488
vn 0.3230 -0.8839 0.3382
vn 0.3219 -0.8418 -0.4333
vn -0.6905 -0.7010 -0.1784
vn -0.9084 -0.4031 -0.1113
vn -0.7381 -0.5125 0.4388
vn -0.1149 -0.9446 0.3076
vn -0.5192 -0.7856 0.3365
vn 0.1674 -0.1803 0.9692
vn -0.4531 0.6961 0.5570
vn 0.0792 0.7797 0.6211
vn 0.5409 0.7100 0.4509
vn -0.0059 0.8852 0.4652
vn -0.1301 -0.9026 -0.4103
vn 0.6474 -0.5223 -0.5551
vn 0.4248 -0.7458 -0.5131
vn -0.4992 0.6194 0.6059
vn -0.0118 0.7685 0.6397
vn -0.5314 0.6222 0.5749
vn -0.8394 0.2156 0.4990
vn -0.8877 0.2692 0.3735
vn -0.3319 -0.7935 -0.5102
vn 0.5620 -0.6412 -0.5225
vn 0.9897 -0.0604 -0.1297
vn 0.9890 0.0524 -0.1380
vn 0.8996 0.3849 0.2064
vn -0.9826 -0.0262 0.1839
vn -0.9609 -0.1538 0.2302
vn 0.9589 0.2792 0.0514
vn -0.5868 -0.7941 -0.1584
vn -0.0880 -0.9332 -0.3485
vn 0.8615 0.3919 0.3229
vn 0.9227 -0.3092 -0.2303
vn -0.9702 -0.2344 0.0621
vn -0.9571 -0.2893 0.0161
vn -0.9670 0.1920 0.1674
vn -0.4834 -0.8701 -0.0959
vn 0.9466 -0.2921 -0.1362
vn -0.7438 0.5610 0.3635
vn -0.1833 0.9481 0.2597
vn -0.7362 0.6246 0.2605
vn -0.4828 -0.8753 -0.0260
vn -0.0468 -0.9952 -0.0859
vn 0.9862 0.0723 -0.1492
vn 0.9221 0.3821 -0.0612
vn 0.8708 0.4712 0.1404
vn 0.6944 0.7086 0.1250
vn 0.1131 0.9850 0.1302
vn 0.2863 0.8887 0.3582
vn -0.0961 0.8010 0.5909
vn -0.2722 0.6696 0.6911
vn -0.7626 0.3956 0.5118
vn -0.9647 -0.2070 0.1631
vn -0.9741 -0.1736 0.1446
vn 0.9838 -0.0518 -0.1717
vn 0.9218 0.3658 0.1283
vn -0.0120 -0.8018 -0.5974
vn -0.2727 -0.8083 -0.5218
vn 0.0159 -0.8069 -0.5904
vn 0.8899 -0.2789 -0.3610
vn -0.7644 0.1302 0.6314
vn -0.7604 -0.6494 0.0033
vn -0.6866 -0.6755 -0.2689
vn 0.4107 -0.7373 -0.5364
vn 0.9804 0.0837 0.1782
vn -0.3158 0.3079 0.8975
vn 0.5447 0.7320 0.4092
vn 0.3389 -0.9407 0.0125
vn 0.9555 0.0170 0.2945
vn 0.9174 0.3144 0.2441
vn 0.1608 0.8389 0.5200
vn 0.7381 0.6171 0.2729
vn -0.9428 -0.0134 0.3330
vn -0.9310 -0.1039 0.3499
vn -0.8129 -0.5756 -0.0891
vn 0.4057 -0.7433 -0.5318
vn -0.4870 -0.8290 -0.2751
vn -0.0586 -0.9061 -0.4190
vn 0.9858 0.1651 -0.0313
vn -0.4535 -0.7869 -0.4185
vn 0.3213 -0.7549 -0.5718
vn 0.8271 -0.3728 -0.4205
vn -0.1658 0.6314 0.7575
vn -0.8412 -0.1619 0.5160
vn -0.8240 -0.5628 0.0650
vn -0.1677 -0.9382 -0.3029
vn 0.9183 -0.3126 -0.2431
vn 0.4668 -0.8641 -0.1881
vn -0.0857 0.8964 0.4349
vn 0.4919 0.8696 0.0431
vn -0.2677 0.8546 0.4450
vn -0.6846 0.5016 0.5289
vn -0.5184 0.6379 0.5695
vn -0.8528 0.1444 0.5018
vn -0.2619 -0.9360 -0.2353
vn -0.7875 -0.6093 0.0931
vn 0.2796 -0.9180 -0.2812
vn 0.2427 -0.8783 -0.4119
vn 0.7393 -0.4935 -0.4581
vn -0.2592 0.8873 0.3815
vn -0.7396 0.4687 0.4830
vn -0.8469 -0.4446 0.2919
vn -0.4908 -0.8640 0.1121
vn -0.1314 -0.9910 -0.0235
vn 0.2969 -0.9431 -0.1495
vn 0.3581 -0.9151 -0.1853
vn 0.9373 0.2873 -0.1976
vn -0.1536 -0.9123 -0.3796
vn 0.4057 -0.8924 -0.1974
vn 0.6943 -0.6609 -0.2849
vn 0.8485 0.4001 0.3465
vn 0.7856 0.6010 0.1469
vn 0.1609 0.8168 0.5540
vn 0.6911 0.6673 0.2778
vn 0.9525 -0.0232 -0.3037
vn 0.9464 0.0135 -0.3226
vn 0.2054 -0.7966 0.5685
vn 0.0931 -0.8329 0.5455
vn 0.1392 -0.7819 0.6076
vn 0.1584 -0.8282 0.5376
vn 0.0704 -0.9200 0.3855
vn 0.1891 -0.8338 0.5187
vn 0.1368 -0.8717 0.4705
vn -0.0208 -0.8220 0.5690
vn 0.2827 -0.7430 0.6066
vn -0.4743 -0.7781 -0.4118
vn -0.7796 -0.4345 -0.4510
vn -0.3821 -0.7921 -0.4761
vn -0.7756 -0.5164 -0.3630
vn -0.9717 0.2325 -0.0409
vn -0.9603 0.2269 -0.1625
vn -0.9397 -0.1511 -0.3068
vn -0.8729 0.4771 0.1016
vn -0.9329 0.3603 0.0025
vn 0.1430 0.9897 0.0102
vn 0.3134 -0.9489 0.0358
vn 0.6929 -0.6857 -0.2231
vn 0.1091 -0.9623 0.2489
vn 0.0687 -0.9101 0.4086
vn 0.0581 -0.9060 0.4194
vn -0.0497 -0.9245 0.3779
vn 0.0295 -0.9392 0.3420
vn 0.0815 -0.9416 0.3266
vn -0.4583 -0.6545 -0.6013
vn -0.9170 0.3412 0.2066
vn -0.8602 0.5050 0.0700
vn 0.1162 -0.9905 0.0742
vn -0.1021 -0.9625 0.2512
vn -0.0226 -0.9792 0.2016
vn 0.0683 -0.9895 0.1272
vn 0.0185 -0.9715 0.2362
vn -0.5877 0.8089 0.0162
vn 0.7547 0.6170 -0.2232
vn 0.6361 -0.7030 -0.3182
vn 0.5169 -0.8410 -0.1599
vn 0.3024 -0.9438 -0.1336
vn 0.7895 -0.4897 0.3700
vn 0.6530 -0.7022 0.2839
vn 0.6714 -0.7262 0.1475
vn 0.6546 -0.5012 0.5660
vn -0.0323 -0.8867 -0.4612
vn 0.4074 -0.8548 -0.3215
vn 0.3765 -0.9147 -0.1472
vn 0.9853 0.1033 0.1360
vn 0.7735 -0.4110 0.4825
vn 0.6303 0.3516 0.6922
vn 0.2679 0.0882 0.9594
vn 0.3930 -0.2787 0.8763
vn -0.8718 0.2638 0.4127
vn 0.4150 -0.6770 0.6079
vn 0.5585 -0.4852 0.6728
vn 0.6523 -0.5508 0.5207
vn -0.1597 -0.8682 0.4697
vn -0.7951 0.6065 -0.0009
vn -0.1168 0.9932 -0.0006
vn -0.9132 -0.2814 0.2949
vn 0.4615 0.8810 -0.1045
vn 0.8362 -0.3839 -0.3917
vn 0.1104 -0.9904 0.0829
vn -0.3029 -0.9397 0.1585
vn 0.0112 -0.9696 0.2445
vn 0.1167 -0.9605 0.2527
vn -0.7403 -0.6573 0.1410
vn -0.9726 -0.1982 0.1214
vn -0.0225 -0.7981 -0.6021
vn -0.0675 -0.9440 -0.3229
vn 0.4310 -0.9023 -0.0039
vn -0.1003 -0.9172 -0.3857
vn -0.2262 -0.6846 -0.6929
vn -0.0650 -0.7686 -0.6364
vn 0.6275 -0.6849 0.3705
vn 0.2135 -0.5494 0.8078
vn -0.4462 -0.0882 0.8906
vn -0.7083 0.0608 0.7033
vn -0.4590 0.8867 0.0558
vn 0.8071 -0.0252 -0.5899
vn 0.1768 -0.9362 0.3039
vn -0.1879 0.5345 0.8240
vn 0.3570 0.5513 0.7541
vn 0.3870 0.6332 0.6703
vn 0.8132 0.5413 0.2139
vn 0.1088 0.9425 0.3161
vn 0.3193 0.9003 0.2957
vn 0.3411 0.8746 0.3446
vn -0.0710 0.9478 0.3109
vn -0.1461 0.9237 0.3543
vn 0.1605 -0.9853 0.0585
vn 0.3909 -0.9031 0.1776
vn 0.1147 -0.9876 0.1072
vn 0.1564 -0.9725 0.1728
vn 0.2821 -0.9592 0.0184
vn 0.1733 -0.9705 -0.1678
vn 0.3007 -0.8859 -0.3531
vn -0.7969 0.6015 -0.0563
vn -0.0191 -0.9919 0.1257
vn -0.0187 -0.9889 0.1475
vn 0.2753 -0.8508 -0.4477
vn 0.1114 -0.7429 0.6601
vn -0.4987 -0.4693 0.7288
vn -0.1865 0.5900 0.7856
vn -0.1133 -0.8211 -0.5594
vn 0.7684 -0.5621 0.3060
vn 0.6465 -0.7408 0.1826
vn 0.9601 -0.2308 -0.1580
vn 0.9286 -0.3536 -0.1127
vn 0.4085 -0.6770 0.6122
vn -0.6714 -0.6555 0.3458
vn -0.6375 -0.1837 0.7483
vn -0.9329 -0.0848 -0.3501
vn -0.8578 -0.1139 -0.5012
vn 0.5641 -0.8077 0.1714
vn 0.8940 -0.3928 0.2155
vn 0.6836 -0.2642 0.6803
vn 0.8095 -0.5681 -0.1482
vn 0.6398 -0.7673 -0.0430
vn -0.6197 -0.4404 -0.6496
vn 0.6375 -0.7682 -0.0585
vn -0.3267 -0.8653 -0.3802
vn -0.2189 0.5777 0.7863
vn -0.7394 -0.6111 -0.2826
vn -0.9716 -0.0241 0.2354
vn 0.4111 -0.2907 0.8640
vn -0.6494 0.4893 0.5821
vn 0.1844 -0.8217 -0.5393
vn 0.3099 -0.7774 -0.5474
vn 0.9238 -0.3828 0.0084
vn 0.9673 0.0887 0.2377
vn -0.8798 -0.4738 0.0385
vn 0.0218 -0.9795 -0.2003
vn 0.1001 -0.8134 -0.5730
vn 0.5182 0.6689 0.5330
vn 0.8169 0.5170 0.2556
vn -0.7884 0.5699 0.2316
vn 0.8030 0.5376 0.2573
vn 0.4185 -0.8817 -0.2180
vn 0.9635 0.2373 0.1237
vn -0.2404 -0.8665 -0.4374
vn -0.7283 -0.6480 -0.2231
vn -0.7560 0.4294 0.4940
vn -0.2730 0.7279 0.6290
vn 0.2007 0.7986 0.5674
vn 0.6061 0.6598 0.4442
vn 0.9874 0.0259 -0.1564
vn 0.6185 -0.6035 -0.5033
vn 0.5984 0.5284 0.6023
vn -0.8117 -0.5544 0.1841
vn 0.9651 0.2408 0.1026
vn -0.9598 -0.0027 0.2806
vn -0.0748 0.8195 0.5681
vn 0.3001 0.8216 0.4846
vn 0.9735 0.0589 -0.2211
vn 0.3491 -0.7645 -0.5418
vn -0.2091 -0.8814 -0.4235
vn -0.5445 -0.7890 -0.2846
vn -0.8518 0.2263 0.4725
vn -0.3259 -0.9160 -0.2339
vn -0.7243 -0.6895 0.0055
vn -0.7667 0.1878 0.6140
vn 0.9908 0.0797 -0.1092
vn 0.6165 0.7873 0.0142
vn 0.8351 0.5400 -0.1048
vn 0.9466 0.2910 -0.1386
vn -0.7024 -0.6926 -0.1642
vn 0.8263 0.5153 -0.2273
vn 0.8994 0.1340 -0.4160
vn -0.9153 0.0712 0.3964
vn -0.9250 -0.3666 0.1001
vn 0.8792 0.1168 0.4619
vn -0.9582 0.1228 0.2583
vn -0.9658 -0.2528 0.0568
vn -0.8616 -0.5033 -0.0657
vn -0.5220 -0.8054 -0.2808
vn 0.4856 -0.7950 -0.3636
vn 0.7951 -0.5332 -0.2891
vn 0.9531 -0.0692 -0.2946
vn 0.0858 0.8797 0.4678
vn -0.9849 0.0055 0.1730
vn 0.9913 -0.0959 -0.0898
vn 0.9566 0.2914 0.0069
vn 0.2821 -0.8941 -0.3478
vn -0.2128 -0.9220 -0.3235
vn -0.9253 -0.3631 -0.1098
vn -0.6063 -0.7488 -0.2679
vn -0.8975 0.4028 0.1794
vn -0.9714 0.1326 -0.1970
vn 0.0604 0.9922 0.1095
vn 0.6578 0.7529 0.0221
vn 0.7959 0.5733 -0.1945
vn 0.8861 0.4546 -0.0910
vn -0.7707 0.6043 0.2021
vn 0.8079 -0.2568 -0.5304
vn 0.8903 0.1153 -0.4405
vn -0.9917 0.0831 0.0977
vn -0.1676 0.9729 0.1592
vn -0.1522 0.9849 0.0831
vn 0.2275 -0.9484 -0.2207
vn -0.9181 -0.0819 -0.3878
vn -0.8605 -0.3855 -0.3330
vn -0.4804 -0.5819 -0.6562
vn 0.5339 -0.7514 -0.3877
vn -0.5875 0.7700 0.2489
vn 0.2305 0.2337 -0.9446
vn 0.9593 -0.1470 -0.2413
vn 0.9121 -0.3841 -0.1434
vn 0.9554 0.2609 -0.1384
vn 0.8964 -0.4067 -0.1761
vn 0.4246 -0.8868 -0.1823
vn 0.4472 -0.8899 -0.0901
vn 0.2353 -0.9647 -0.1184
vn 0.0929 -0.9722 -0.2151
vn 0.0718 -0.9862 -0.1493
vn -0.6976 -0.7143 0.0563
vn -0.2861 -0.9410 -0.1809
vn -0.7237 -0.6888 -0.0439
vn -0.9714 -0.2346 0.0357
vn -0.9339 -0.3179 0.1639
vn -0.8384 0.4738 0.2694
vn 0.2984 0.9499 0.0934
vn 0.7371 0.6754 -0.0228
vn -0.9691 0.0576 0.2397
vn 0.0298 0.4138 -0.9099
vn -0.0764 0.4790 -0.8745
vn 0.0071 0.3093 -0.9509
vn -0.2789 -0.9577 -0.0704
vn 0.1364 -0.9358 0.3250
vn 0.3747 -0.8686 0.3243
vn 0.1135 -0.9554 0.2725
vn -0.9234 -0.1314 0.3607
vn -0.8939 0.1874 0.4072
vn 0.9639 0.2375 0.1202
vn 0.9313 0.2083 -0.2987
vn 0.9116 -0.0480 -0.4083
vn 0.2140 -0.9655 -0.1482
vn -0.9354 0.3031 0.1822
vn -0.9122 0.2650 0.3127
vn -0.9802 0.0846 0.1790
vn -0.9621 0.2140 0.1691
vn -0.9126 0.1233 0.3899
vn -0.6382 0.2690 0.7213
vn 0.4479 0.6345 0.6300
vn -0.9931 0.0525 -0.1045
vn -0.9236 0.3434 0.1704
vn 0.3001 -0.4310 0.8510
vn -0.6055 0.5649 0.5606
vn -0.3631 -0.7549 -0.5462
vn -0.2233 0.2495 -0.9423
vn -0.1793 0.2458 -0.9526
vn -0.1988 0.2593 -0.9451
vn -0.1539 0.1955 -0.9685
vn -0.1570 0.1805 -0.9710
vn -0.1664 0.2324 -0.9583
vn -0.1652 0.2435 -0.9557
vn -0.1676 0.2427 -0.9555
vn -0.1707 0.2378 -0.9562
vn -0.1815 0.2421 -0.9531
vn -0.1587 0.2947 -0.9423
vn -0.1643 0.2939 -0.9416
vn -0.1999 0.2290 -0.9527
vt 0.456960 0.461500
vt 0.450720 0.474600
vt 0.470730 0.470400
vt 0.376820 0.421370
vt 0.359760 0.423410
vt 0.385310 0.435900
vt 0.380920 0.345870
vt 0.369760 0.370370
vt 0.382180 0.360900
vt 0.360130 0.325360
vt 0.405920 0.333650
vt 0.384790 0.324800
vt 0.555960 0.271280
vt 0.578380 0.290940
vt 0.588690 0.274590
vt 0.364130 0.284680
vt 0.351920 0.261370
vt 0.336820 0.267340
vt 0.333700 0.244450
vt 0.314410 0.254070
vt 0.362690 0.240330
vt 0.356320 0.249620
vt 0.433580 0.184620
vt 0.415720 0.180620
vt 0.413930 0.192620
vt 0.461580 0.141900
vt 0.466680 0.148950
vt 0.492920 0.121850
vt 0.290090 0.222500
vt 0.295820 0.189730
vt 0.284760 0.200090
vt 0.311810 0.206200
vt 0.269140 0.189120
vt 0.279810 0.173210
vt 0.294340 0.168820
vt 0.286870 0.150330
vt 0.274090 0.402400
vt 0.349660 0.382140
vt 0.251120 0.225330
vt 0.255290 0.202090
vt 0.230970 0.237650
vt 0.328090 0.590230
vt 0.319700 0.547820
vt 0.297010 0.562910
vt 0.363150 0.604730
vt 0.410160 0.629840
vt 0.402670 0.617690
vt 0.306600 0.529180
vt 0.357120 0.443810
vt 0.204000 0.357060
vt 0.213610 0.328690
vt 0.161920 0.354330
vt 0.131370 0.298560
vt 0.159070 0.272660
vt 0.116580 0.249050
vt 0.139760 0.251140
vt 0.179410 0.512660
vt 0.240600 0.486000
vt 0.169470 0.484910
vt 0.432380 0.369850
vt 0.429920 0.374910
vt 0.437900 0.373290
vt 0.395620 0.253940
vt 0.389120 0.247900
vt 0.387690 0.257230
vt 0.398320 0.249500
vt 0.483600 0.082900
vt 0.438450 0.097620
vt 0.470730 0.095060
vt 0.503570 0.096140
vt 0.515920 0.108000
vt 0.510420 0.090960
vt 0.325330 0.163680
vt 0.324110 0.160920
vt 0.321010 0.169940
vt 0.317560 0.170440
vt 0.806920 0.832400
vt 0.835500 0.856490
vt 0.811360 0.811850
vt 0.722230 0.773440
vt 0.699810 0.766100
vt 0.712560 0.778560
vt 0.632300 0.733870
vt 0.636250 0.751260
vt 0.642060 0.750270
vt 0.589060 0.690380
vt 0.585960 0.673120
vt 0.561900 0.683580
vt 0.167190 0.190310
vt 0.198760 0.166170
vt 0.157060 0.181980
vt 0.334690 0.556000
vt 0.359660 0.582730
vt 0.831650 0.636090
vt 0.842640 0.657050
vt 0.854510 0.642750
vt 0.420670 0.358810
vt 0.401150 0.349680
vt 0.381860 0.278700
vt 0.396230 0.295350
vt 0.370750 0.246000
vt 0.469840 0.153140
vt 0.488670 0.133730
vt 0.397500 0.170720
vt 0.411270 0.159470
vt 0.379080 0.157160
vt 0.307330 0.185950
vt 0.313760 0.191880
vt 0.303960 0.179290
vt 0.279260 0.100950
vt 0.281110 0.088010
vt 0.269550 0.099020
vt 0.238820 0.200550
vt 0.218640 0.187100
vt 0.193410 0.194220
vt 0.129720 0.224770
vt 0.245750 0.132380
vt 0.235940 0.147660
vt 0.244620 0.151770
vt 0.321320 0.008800
vt 0.311660 0.008400
vt 0.315120 0.014700
vt 0.327050 0.176720
vt 0.334910 0.165170
vt 0.328320 0.170030
vt 0.450380 0.183080
vt 0.428530 0.209580
vt 0.498040 0.335680
vt 0.511070 0.324120
vt 0.483920 0.327940
vt 0.438710 0.358790
vt 0.433760 0.353030
vt 0.423170 0.371480
vt 0.511880 0.427180
vt 0.487330 0.409830
vt 0.506980 0.432970
vt 0.138130 0.308800
vt 0.208930 0.281490
vt 0.313150 0.234850
vt 0.507930 0.838760
vt 0.491440 0.858560
vt 0.515110 0.844090
vt 0.451220 0.125700
vt 0.481740 0.105370
vt 0.507870 0.109460
vt 0.500480 0.098720
vt 0.600320 0.263250
vt 0.572920 0.252880
vt 0.617930 0.249780
vt 0.631350 0.253060
vt 0.624710 0.242970
vt 0.617960 0.260010
vt 0.689640 0.881330
vt 0.687200 0.839440
vt 0.676070 0.866380
vt 0.684150 0.765640
vt 0.667460 0.768150
vt 0.686370 0.806460
vt 0.625590 0.276210
vt 0.701870 0.836550
vt 0.236260 0.187490
vt 0.269500 0.166540
vt 0.294780 0.055250
vt 0.310260 0.064800
vt 0.309500 0.013040
vt 0.303360 0.002540
vt 0.297990 0.012810
vt 0.578020 0.657470
vt 0.234630 0.175830
vt 0.261510 0.160780
vt 0.287860 0.102770
vt 0.554540 0.672250
vt 0.564670 0.640240
vt 0.381210 0.385830
vt 0.413070 0.386080
vt 0.584130 0.529210
vt 0.583980 0.500170
vt 0.580250 0.510860
vt 0.806460 0.902810
vt 0.796450 0.897670
vt 0.810990 0.933850
vt 0.769700 0.825780
vt 0.785390 0.839150
vt 0.780830 0.821460
vt 0.360110 0.405730
vt 0.479920 0.455440
vt 0.567410 0.534560
vt 0.560800 0.542300
vt 0.920260 0.607820
vt 0.930510 0.630730
vt 0.944920 0.623370
vt 0.390770 0.631130
vt 0.355330 0.614380
vt 0.371780 0.638460
vt 0.160770 0.547000
vt 0.201400 0.521530
vt 0.352890 0.652970
vt 0.407140 0.675170
vt 0.364690 0.651360
vt 0.349870 0.636450
vt 0.639340 0.477840
vt 0.619860 0.447260
vt 0.625080 0.477140
vt 0.639550 0.443610
vt 0.635130 0.493450
vt 0.613330 0.477110
vt 0.589610 0.579590
vt 0.598320 0.608740
vt 0.608840 0.588710
vt 0.433620 0.736340
vt 0.439950 0.723670
vt 0.428800 0.713680
vt 0.605500 0.701340
vt 0.594740 0.687820
vt 0.592220 0.706620
vt 0.605810 0.713480
vt 0.595180 0.719480
vt 0.569440 0.769740
vt 0.558550 0.762760
vt 0.546020 0.775030
vt 0.484070 0.878510
vt 0.498550 0.886340
vt 0.498450 0.873550
vt 0.522390 0.849180
vt 0.526440 0.867190
vt 0.558600 0.826650
vt 0.593840 0.787210
vt 0.581460 0.801490
vt 0.602280 0.798630
vt 0.575290 0.819240
vt 0.640390 0.769610
vt 0.646060 0.770910
vt 0.665420 0.755770
vt 0.651440 0.745610
vt 0.656450 0.772530
vt 0.661230 0.796090
vt 0.664240 0.844300
vt 0.665270 0.869290
vt 0.683370 0.921120
vt 0.669080 0.944270
vt 0.683290 0.967930
vt 0.701210 0.973570
vt 0.687810 0.978080
vt 0.702110 0.986650
vt 0.716590 0.979540
vt 0.724330 0.836310
vt 0.714970 0.843600
vt 0.726940 0.860130
vt 0.731390 0.765230
vt 0.742710 0.765700
vt 0.753670 0.750710
vt 0.773850 0.844950
vt 0.831200 0.938920
vt 0.820360 0.928920
vt 0.825510 0.808680
vt 0.845170 0.865130
vt 0.814540 0.701440
vt 0.794840 0.707820
vt 0.808120 0.718390
vt 0.835080 0.664660
vt 0.844630 0.664200
vt 0.864750 0.667740
vt 0.959340 0.657960
vt 0.944380 0.654000
vt 0.916540 0.661560
vt 0.900280 0.574780
vt 0.903860 0.589540
vt 0.924520 0.593950
vt 0.504190 0.500560
vt 0.512320 0.488560
vt 0.492520 0.493850
vt 0.507980 0.513700
vt 0.489320 0.505010
vt 0.831940 0.869250
vt 0.790520 0.881350
vt 0.780830 0.872290
vt 0.779820 0.884060
vt 0.542030 0.453530
vt 0.532790 0.445660
vt 0.533740 0.459980
vt 0.471560 0.511530
vt 0.510040 0.537900
vt 0.541010 0.542490
vt 0.569880 0.484980
vt 0.540870 0.545960
vt 0.835110 0.924010
vt 0.852530 0.930880
vt 0.848090 0.920520
vt 0.573200 0.495040
vt 0.579490 0.491240
vt 0.416700 0.482530
vt 0.447380 0.504090
vt 0.430340 0.477830
vt 0.810750 0.770710
vt 0.765520 0.795910
vt 0.481000 0.310680
vt 0.480060 0.303470
vt 0.447180 0.328140
vt 0.713720 0.806150
vt 0.699900 0.789660
vt 0.418430 0.265480
vt 0.471300 0.263410
vt 0.498100 0.253970
vt 0.472330 0.273350
vt 0.437810 0.289850
vt 0.474180 0.279740
vt 0.488150 0.301490
vt 0.558370 0.289810
vt 0.550590 0.298490
vt 0.559470 0.321300
vt 0.545540 0.320630
vt 0.573530 0.228090
vt 0.542300 0.236980
vt 0.542410 0.248390
vt 0.696640 0.936570
vt 0.709200 0.918230
vt 0.694840 0.919530
vt 0.674300 0.922470
vt 0.618680 0.282540
vt 0.622980 0.285780
vt 0.724680 0.976000
vt 0.722450 0.986220
vt 0.720650 0.962670
vt 0.689850 0.964620
vt 0.612090 0.243250
vt 0.618360 0.272590
vt 0.439740 0.145580
vt 0.483000 0.864430
vt 0.493300 0.086020
vt 0.492060 0.090150
vt 0.470860 0.101020
vt 0.308250 0.084070
vt 0.292500 0.070120
vt 0.464340 0.732700
vt 0.529990 0.715120
vt 0.484130 0.719230
vt 0.468720 0.683640
vt 0.482540 0.698300
vt 0.487440 0.687930
vt 0.279830 0.059000
vt 0.464260 0.705220
vt 0.457570 0.693110
vt 0.272400 0.056920
vt 0.272700 0.024960
vt 0.264140 0.047560
vt 0.324090 0.029560
vt 0.442240 0.735510
vt 0.451440 0.728640
vt 0.442910 0.706350
vt 0.282580 0.019570
vt 0.285760 0.009680
vt 0.303510 0.115080
vt 0.294660 0.120430
vt 0.302080 0.157250
vt 0.321850 0.097790
vt 0.314890 0.155240
vt 0.325430 0.144890
vt 0.575830 0.701400
vt 0.522500 0.686050
vt 0.526600 0.696610
vt 0.541120 0.657170
vt 0.517140 0.667630
vt 0.257860 0.097790
vt 0.253860 0.097610
vt 0.246220 0.121940
vt 0.388080 0.220270
vt 0.403460 0.230030
vt 0.610530 0.779580
vt 0.608000 0.753770
vt 0.598950 0.746120
vt 0.598960 0.730870
vt 0.581890 0.754380
vt 0.364930 0.183940
vt 0.373700 0.670950
vt 0.967170 0.600440
vt 0.957960 0.590090
vt 0.949530 0.600750
vt 0.943950 0.640260
vt 0.917600 0.638700
vt 0.864440 0.651590
vt 0.895040 0.646210
vt 0.193850 0.182870
vt 0.228400 0.162660
vt 0.618000 0.681950
vt 0.606130 0.668020
vt 0.662780 0.722730
vt 0.633830 0.695810
vt 0.618560 0.720290
vt 0.726730 0.742230
vt 0.689450 0.739580
vt 0.717930 0.759650
vt 0.674840 0.732230
vt 0.237600 0.602760
vt 0.199900 0.578220
vt 0.195620 0.590750
vt 0.259620 0.586740
vt 0.259220 0.551920
vt 0.223400 0.532300
vt 0.251800 0.572050
vt 0.275390 0.483080
vt 0.244750 0.503110
vt 0.344520 0.310300
vt 0.590230 0.626580
vt 0.566870 0.620780
vt 0.613640 0.652570
vt 0.626960 0.665810
vt 0.642200 0.678990
vt 0.657150 0.692240
vt 0.670150 0.704820
vt 0.712710 0.710790
vt 0.172300 0.582080
vt 0.323680 0.475820
vt 0.331160 0.435850
vt 0.220410 0.156650
vt 0.620130 0.638200
vt 0.648750 0.665090
vt 0.644580 0.634380
vt 0.651920 0.618860
vt 0.667420 0.634530
vt 0.255790 0.420240
vt 0.177630 0.210680
vt 0.615210 0.505460
vt 0.615550 0.541350
vt 0.644310 0.514430
vt 0.589090 0.553760
vt 0.774740 0.597890
vt 0.798600 0.584690
vt 0.783750 0.560710
vt 0.799940 0.602290
vt 0.790120 0.493800
vt 0.769360 0.501020
vt 0.801180 0.534740
vt 0.841350 0.617610
vt 0.838370 0.603870
vt 0.974980 0.648260
vt 0.990900 0.646910
vt 0.997320 0.635180
vt 0.381660 0.619060
vt 0.785210 0.665660
vt 0.795040 0.630040
vt 0.764790 0.631770
vt 0.805110 0.696860
vt 0.254210 0.434850
vt 0.289910 0.335850
vt 0.344030 0.501550
vt 0.358810 0.492240
vt 0.361840 0.479630
vt 0.229180 0.255800
vt 0.120860 0.204930
vt 0.778670 0.749800
vt 0.797310 0.740660
vt 0.771410 0.709530
vt 0.768860 0.692740
vt 0.376680 0.479710
vt 0.376140 0.471060
vt 0.771400 0.469130
vt 0.833900 0.534040
vt 0.824700 0.553850
vt 0.807650 0.506460
vt 0.784480 0.448410
vt 0.751280 0.425410
vt 0.794690 0.472350
vt 0.234490 0.614480
vt 0.820350 0.593960
vt 0.818050 0.669630
vt 0.827370 0.678990
vt 0.315450 0.513130
vt 0.175270 0.419030
vt 0.093440 0.231670
vt 0.094180 0.218460
vt 0.436520 0.377910
vt 0.760050 0.717920
vt 0.561140 0.527100
vt 0.572340 0.511360
vt 0.543970 0.488150
vt 0.475650 0.444610
vt 0.465780 0.445820
vt 0.449600 0.429080
vt 0.417620 0.407650
vt 0.432080 0.426890
vt 0.378580 0.398790
vt 0.636510 0.571870
vt 0.728630 0.555220
vt 0.672370 0.539240
vt 0.709230 0.607730
vt 0.718620 0.516100
vt 0.668290 0.510620
vt 0.714740 0.497680
vt 0.175120 0.440320
vt 0.678030 0.612930
vt 0.687490 0.584560
vt 0.706780 0.465610
vt 0.801790 0.686390
vt 0.335620 0.510120
vt 0.515780 0.499640
vt 0.831010 0.904660
vt 0.749400 0.574670
vt 0.830490 0.571800
vt 0.850530 0.598080
vt 0.946440 0.614670
vt 0.417860 0.673190
vt 0.426950 0.661000
vt 0.415080 0.668940
vt 0.421820 0.656870
vt 0.212070 0.555550
vt 0.181600 0.557310
vt 0.982350 0.610480
vt 0.972410 0.620850
vt 0.981630 0.629010
vt 0.854490 0.577060
vt 0.767360 0.537700
vt 0.153000 0.571990
vt 0.737470 0.516240
vt 0.815170 0.493190
vt 0.932910 0.574200
vt 0.918870 0.569750
vt 0.997770 0.619000
vt 0.995070 0.612190
vt 0.974790 0.659100
vt 0.929300 0.669060
vt 0.886510 0.668510
vt 0.847610 0.671730
vt 0.835420 0.678800
vt 0.830900 0.682680
vt 0.821670 0.691530
vt 0.806970 0.733390
vt 0.836790 0.826070
vt 0.821310 0.781610
vt 0.846350 0.901760
vt 0.856980 0.901450
vt 0.795470 0.922250
vt 0.729710 0.772920
vt 0.727720 0.785240
vt 0.731980 0.846140
vt 0.729500 0.809030
vt 0.664570 0.914410
vt 0.656990 0.855740
vt 0.597290 0.804050
vt 0.511200 0.814530
vt 0.481880 0.853080
vt 0.588280 0.713430
vt 0.584920 0.708330
vt 0.586520 0.709930
vt 0.563410 0.711420
vt 0.523020 0.723070
vt 0.474080 0.735670
vt 0.441720 0.739390
vt 0.430220 0.705240
vt 0.425720 0.712850
vt 0.577230 0.598160
vt 0.602900 0.505990
vt 0.724550 0.439120
vt 0.752430 0.468080
vt 0.753640 0.767990
vt 0.742560 0.774460
vt 0.435570 0.383600
vt 0.392230 0.480410
vt 0.785860 0.774880
vt 0.841530 0.839430
vt 0.808840 0.875720
vt 0.520140 0.476420
vt 0.517420 0.459650
vt 0.816640 0.769270
vt 0.424650 0.452870
vt 0.440760 0.409300
vt 0.765750 0.779210
vt 0.808570 0.744780
vt 0.453020 0.402150
vt 0.465770 0.396720
vt 0.801520 0.930800
vt 0.705370 0.878580
vt 0.721800 0.896590
vt 0.731420 0.908200
vt 0.737450 0.894860
vt 0.523060 0.307810
vt 0.537420 0.296410
vt 0.533290 0.277290
vt 0.553600 0.255280
vt 0.497300 0.240530
vt 0.514050 0.243070
vt 0.679360 0.901580
vt 0.611130 0.291680
vt 0.609460 0.251820
vt 0.683850 0.983070
vt 0.602380 0.230900
vt 0.721830 0.794930
vt 0.420050 0.256600
vt 0.655400 0.825190
vt 0.457080 0.344030
vt 0.398910 0.256550
vt 0.393470 0.262690
vt 0.569930 0.833800
vt 0.451110 0.162490
vt 0.434660 0.165350
vt 0.402740 0.143250
vt 0.397470 0.134230
vt 0.528670 0.802350
vt 0.540950 0.814440
vt 0.561860 0.807870
vt 0.474460 0.184820
vt 0.478070 0.161940
vt 0.577150 0.774490
vt 0.511220 0.871820
vt 0.519210 0.879700
vt 0.512510 0.117220
vt 0.448080 0.119790
vt 0.421370 0.228970
vt 0.352820 0.200280
vt 0.380450 0.142320
vt 0.325900 0.208450
vt 0.323170 0.187150
vt 0.459410 0.716810
vt 0.507120 0.666180
vt 0.276220 0.113110
vt 0.263320 0.136160
vt 0.554840 0.642520
vt 0.425540 0.639390
vt 0.417430 0.647150
vt 0.412330 0.659270
vt 0.970670 0.634680
vt 0.985070 0.599910
vt 0.336210 0.603740
vt 0.327980 0.616040
vt 0.336320 0.628550
vt 0.310990 0.620480
vt 0.333390 0.641510
vt 0.898160 0.581620
vt 0.893040 0.596510
vt 0.898620 0.606320
vt 0.895500 0.660900
vt 0.341600 0.566250
vt 0.287240 0.579030
vt 0.321110 0.645120
vt 0.880420 0.604870
vt 0.895630 0.627660
vt 0.851880 0.564090
vt 0.854740 0.539740
vt 0.278340 0.584450
vt 0.275890 0.602590
vt 0.257280 0.619140
vt 0.149730 0.483070
vt 0.158790 0.506600
vt 0.083850 0.374640
vt 0.113880 0.305690
vt 0.117140 0.276930
vt 0.101720 0.284600
vt 0.156920 0.437550
vt 0.062870 0.247930
vt 0.064310 0.232530
vt 0.088680 0.264220
vt 0.129030 0.487610
vt 0.093980 0.417300
vt 0.172190 0.395680
vt 0.677500 0.425130
vt 0.146430 0.526020
vt 0.128150 0.533430
vt 0.123150 0.558280
vt 0.621120 0.431500
vt 0.053360 0.242260
vt 0.095410 0.434490
vt 0.048030 0.301800
vt 0.074470 0.273120
vt 0.024800 0.277910
vt 0.071060 0.300520
vt 0.048520 0.257970
vt 0.039420 0.252040
vt 0.012630 0.267130
vt 0.632130 0.379860
vt 0.621750 0.413270
vt 0.673630 0.375180
vt 0.732050 0.412870
vt 0.726300 0.372800
vt 0.080000 0.534370
vt 0.107440 0.566080
vt 0.113800 0.543170
vt 0.117290 0.519470
vt 0.084900 0.514610
vt 0.094590 0.458410
vt 0.085830 0.327470
vt 0.076110 0.309790
vt 0.091480 0.485790
vt 0.064100 0.324770
vt 0.072080 0.345100
vt 0.059880 0.316790
vt 0.232540 0.145840
vt 0.145110 0.584380
vt 0.072340 0.553780
vt 0.765010 0.420690
vt 0.759270 0.409340
vt 0.751450 0.369190
vt 0.756340 0.669330
vt 0.748610 0.628400
vt 0.735560 0.645070
vt 0.429970 0.648680
vt 0.332270 0.486040
vt 0.542390 0.314470
vt 0.573060 0.244580
vt 0.176680 0.196430
vt 0.131900 0.211540
vt 0.843010 0.556860
vt 0.284290 0.554320
vt 0.310190 0.497430
vt 0.356610 0.463280
vt 0.374440 0.456520
vt 0.530430 0.530150
vt 0.561330 0.535880
vt 0.417020 0.372800
vt 0.325760 0.054010
vt 0.332380 0.025960
vt 0.267420 0.568140
vt 0.280860 0.538340
vt 0.572730 0.522290
vt 0.457570 0.171530
vt 0.532420 0.824110
vt 0.434890 0.216500
vt 0.313756 0.986818
vt 0.241916 0.832579
vt 0.170862 0.975821
vt 0.436942 0.908794
vt 0.410800 0.952161
vt 0.444490 0.827186
vt 0.418067 0.750696
vt 0.368292 0.700052
vt 0.323261 0.681221
vt 0.203659 0.676784
vt 0.109242 0.697052
vt 0.049978 0.728757
vt 0.029579 0.752030
vt 0.010384 0.810216
vt 0.027867 0.904802
vt 0.069465 0.947966
vt 0.371317 0.980865
s 1
usemtl default3
f 1/1/1 2/2/2 3/3/3
f 4/4/4 5/5/5 6/6/6
f 7/7/7 8/8/8 9/9/9
f 10/10/10 8/8/8 7/7/7
f 11/11/11 12/12/12 7/7/7
f 13/13/13 14/14/14 15/15/15
f 16/16/16 17/17/17 18/18/18
f 18/18/18 19/19/19 20/20/20
f 19/19/19 18/18/18 17/17/17
f 21/21/21 19/19/19 22/22/22
f 23/23/23 24/24/24 25/25/25
f 26/26/26 27/27/27 28/28/28
f 29/29/29 30/30/30 31/31/31
f 30/30/30 29/29/29 32/32/32
f 30/30/30 33/33/33 31/31/31
f 34/34/34 35/35/35 36/36/36
f 10/10/10 37/37/37 38/38/38
f 39/39/39 40/40/40 41/41/41
f 42/42/42 43/43/43 44/44/44
f 45/45/45 46/46/46 47/47/47
f 43/43/43 48/48/48 44/44/44
f 49/49/49 6/6/6 5/5/5
f 50/50/50 51/51/51 52/52/52
f 50/50/50 52/52/52 37/37/37
f 53/53/53 54/54/54 55/55/55
f 56/56/56 55/55/55 54/54/54
f 57/57/57 58/58/58 59/59/59
f 60/60/60 61/61/61 62/62/62
f 63/63/63 64/64/64 65/65/65
f 64/64/64 63/63/63 66/66/66
f 67/67/67 68/68/68 69/69/69
f 70/70/70 71/71/71 72/72/72
f 73/73/73 74/74/74 75/75/75
f 75/75/76 74/74/74 76/76/77
f 77/77/78 78/78/79 79/79/80
f 80/80/81 81/81/82 82/82/83
f 83/83/84 84/84/85 85/85/86
f 86/86/87 87/87/88 88/88/89
f 89/89/90 90/90/91 91/91/92
f 92/92/93 43/43/43 42/42/42
f 47/47/47 93/93/94 45/45/45
f 94/94/95 95/95/96 96/96/97
f 9/9/9 97/97/98 7/7/7
f 7/7/7 98/98/99 11/11/11
f 99/99/100 16/16/16 100/100/101
f 16/16/16 65/65/65 17/17/17
f 22/22/22 101/101/102 21/21/21
f 102/102/103 103/103/104 27/27/27
f 104/104/105 105/105/106 106/106/107
f 30/30/30 32/32/32 107/107/108
f 32/32/32 108/108/109 107/107/108
f 34/34/34 109/109/110 35/35/35
f 110/110/111 111/111/112 112/112/113
f 113/113/114 114/114/115 115/115/116
f 116/116/117 55/55/55 56/56/56
f 117/117/118 118/118/119 119/119/120
f 120/120/121 121/121/122 122/122/123
f 123/123/124 124/124/125 125/125/126
f 126/126/127 23/23/23 127/127/128
f 128/128/129 129/129/130 130/130/131
f 60/60/60 131/131/132 132/132/133
f 61/61/61 60/60/60 133/133/134
f 134/134/135 135/135/136 136/136/137
f 53/53/53 137/137/138 138/138/139
f 139/139/140 32/32/32 29/29/29
f 24/24/24 105/105/106 104/104/105
f 140/140/141 141/141/142 142/142/143
f 139/139/140 20/20/20 19/19/19
f 143/143/144 28/28/28 144/144/145
f 28/28/28 143/143/144 26/26/26
f 28/28/28 145/145/146 146/146/147
f 147/147/148 148/148/149 13/13/13
f 149/149/150 150/150/151 151/151/152
f 150/150/151 149/149/150 152/152/153
f 153/153/154 154/154/155 155/155/156
f 156/156/157 157/157/158 158/158/159
f 13/13/13 15/15/15 147/147/148
f 159/159/160 150/150/151 152/152/153
f 160/160/161 154/154/155 153/153/154
f 113/113/114 41/41/41 40/40/40
f 161/161/162 33/33/33 162/162/163
f 162/162/163 34/34/34 36/36/36
f 163/163/164 164/164/165 165/165/166
f 166/166/167 121/121/122 120/120/121
f 121/121/122 166/166/167 167/167/168
f 87/87/88 168/168/169 88/88/89
f 169/169/170 162/162/163 170/170/171
f 162/162/163 169/169/170 161/161/162
f 171/171/172 111/111/112 110/110/111
f 172/172/173 168/168/169 173/173/174
f 8/8/8 174/174/175 175/175/176
f 176/176/177 177/177/178 178/178/179
f 179/179/180 180/180/181 177/181/178
f 135/182/136 181/183/182 182/184/183
f 183/185/184 5/5/5 4/4/4
f 1/1/1 3/3/3 184/186/185
f 185/187/186 186/188/187 176/176/177
f 182/184/183 77/77/78 79/79/80
f 187/189/188 188/190/189 189/191/190
f 190/192/191 191/193/192 192/194/193
f 193/195/194 194/196/195 57/57/57
f 195/197/196 196/198/197 197/199/198
f 195/197/196 197/199/198 198/200/199
f 199/201/200 200/202/201 201/203/202
f 200/202/201 199/201/200 202/204/203
f 201/203/202 203/205/204 199/201/200
f 203/205/204 201/203/202 204/206/205
f 205/207/206 206/208/207 207/209/208
f 120/210/121 208/211/209 166/212/167
f 209/213/210 210/214/211 211/215/212
f 212/216/213 211/215/212 124/217/125
f 213/218/214 214/219/215 215/220/216
f 72/221/72 71/222/71 216/223/217
f 217/224/218 218/225/219 219/226/220
f 220/227/221 221/228/222 222/229/223
f 222/229/223 221/228/222 223/230/224
f 85/85/86 66/231/66 63/232/63
f 66/231/66 85/85/86 84/84/85
f 63/232/63 224/233/225 225/234/226
f 226/235/227 158/158/159 157/157/158
f 158/158/159 226/235/227 227/236/228
f 228/237/229 155/155/156 154/154/155
f 155/155/156 228/237/229 229/238/230
f 230/239/231 231/240/232 232/241/233
f 233/242/234 151/243/152 150/244/151
f 233/242/234 150/244/151 234/245/235
f 235/246/236 236/247/237 237/248/238
f 62/249/62 238/250/239 239/251/240
f 181/183/182 135/182/136 134/252/135
f 177/181/178 176/253/177 240/254/241
f 78/78/79 241/255/242 79/79/80
f 241/255/242 78/78/79 242/256/243
f 243/257/244 244/258/245 245/259/246
f 246/260/247 92/261/93 95/95/96
f 95/95/96 92/261/93 247/262/248
f 248/263/249 249/264/250 250/265/251
f 251/266/252 252/267/253 253/268/254
f 254/269/255 255/270/256 256/271/257
f 256/271/257 257/272/258 254/269/255
f 257/272/258 256/271/257 258/273/259
f 259/274/260 242/256/243 78/78/79
f 260/275/261 261/276/262 262/277/263
f 262/278/263 261/279/262 263/280/264
f 264/281/265 242/282/243 265/283/266
f 263/280/264 266/284/267 262/278/263
f 267/285/268 186/188/187 265/283/266
f 268/286/269 186/287/187 267/288/268
f 186/287/187 268/286/269 176/253/177
f 269/289/270 178/178/179 270/290/271
f 270/290/271 178/178/179 177/177/178
f 271/291/272 272/292/273 273/293/274
f 274/294/275 79/79/80 241/255/242
f 275/295/276 135/182/136 182/184/183
f 276/296/277 277/297/278 278/298/279
f 236/247/237 235/246/236 279/299/280
f 160/160/161 236/247/237 280/300/281
f 280/300/281 236/247/237 279/299/280
f 154/154/155 160/160/161 158/158/159
f 158/158/159 160/160/161 280/300/281
f 281/301/282 282/302/283 283/303/284
f 284/304/285 285/305/286 286/306/287
f 277/297/278 286/306/287 285/305/286
f 277/297/278 276/296/277 287/307/288
f 287/307/288 286/306/287 277/297/278
f 14/14/14 288/308/289 289/309/290
f 290/310/291 14/14/14 291/311/292
f 231/312/232 292/313/293 293/314/294
f 14/14/14 13/13/13 288/308/289
f 294/315/295 295/316/296 296/317/297
f 230/239/231 294/315/295 296/317/297
f 230/239/231 297/318/298 231/240/232
f 159/159/160 298/319/299 299/320/300
f 299/321/300 234/245/235 159/322/160
f 234/245/235 299/321/300 300/323/301
f 233/242/234 234/245/235 300/323/301
f 151/243/152 233/242/234 301/324/302
f 302/325/303 149/149/150 151/151/152
f 152/152/153 303/326/304 159/159/160
f 304/327/305 27/27/27 26/26/26
f 26/26/26 143/143/144 304/327/305
f 216/223/217 305/328/306 72/221/72
f 305/328/306 216/223/217 141/141/142
f 72/72/72 305/329/306 306/330/307
f 306/330/307 307/331/308 146/146/147
f 308/332/309 163/163/164 309/333/310
f 308/332/309 164/164/165 163/163/164
f 310/334/311 311/335/312 312/336/313
f 313/337/314 314/338/315 315/339/316
f 316/340/317 309/333/310 163/163/164
f 317/341/318 312/336/313 314/338/315
f 318/342/319 317/341/318 313/337/314
f 313/337/314 317/341/318 314/338/315
f 319/343/320 318/344/319 313/345/314
f 320/346/321 120/120/121 122/122/123
f 321/347/322 208/211/209 120/210/121
f 208/211/209 321/347/322 322/348/323
f 166/212/167 208/211/209 323/349/324
f 324/350/325 167/167/168 325/351/326
f 326/352/327 327/353/328 35/35/35
f 35/35/35 328/354/329 326/352/327
f 329/355/330 330/356/331 331/357/332
f 74/358/74 88/88/89 311/335/312
f 172/172/173 332/359/333 333/360/334
f 172/172/173 333/360/334 88/88/89
f 332/359/333 334/361/335 335/362/336
f 336/363/337 335/364/336 334/365/335
f 25/25/25 24/24/24 337/366/338
f 23/23/23 338/367/339 127/127/128
f 220/227/221 339/368/340 340/369/341
f 340/369/341 341/370/342 220/227/221
f 342/371/343 343/372/344 341/370/342
f 344/373/345 104/104/105 106/106/107
f 196/198/197 195/197/196 345/374/346
f 253/268/254 346/375/347 345/376/346
f 253/268/254 345/376/346 251/266/252
f 347/377/348 346/375/347 253/268/254
f 348/378/349 189/191/190 188/190/189
f 349/379/350 249/264/250 348/378/349
f 96/96/97 350/380/351 351/381/352
f 352/382/353 353/383/354 90/90/91
f 161/161/162 114/114/115 113/113/114
f 113/113/114 40/40/40 161/161/162
f 31/31/31 40/40/40 39/39/39
f 39/39/39 29/29/29 31/31/31
f 354/384/355 210/214/211 209/213/210
f 210/214/211 354/384/355 355/385/356
f 355/385/356 87/87/88 210/214/211
f 87/87/88 355/385/356 168/168/169
f 356/386/357 83/83/84 225/234/226
f 357/387/358 209/213/210 358/388/359
f 209/213/210 357/387/358 354/384/355
f 356/386/357 358/388/359 83/83/84
f 358/388/359 356/386/357 357/387/358
f 359/389/360 360/390/361 361/391/362
f 360/390/361 224/233/225 156/156/157
f 224/233/225 360/390/361 362/392/363
f 356/386/357 225/234/226 362/392/363
f 224/233/225 362/392/363 225/234/226
f 363/393/364 364/394/365 365/395/366
f 364/394/365 363/393/364 366/396/367
f 367/397/368 368/398/369 369/399/370
f 370/400/371 371/401/372 367/397/368
f 10/10/10 38/38/38 8/8/8
f 372/402/373 18/18/18 20/20/20
f 18/18/18 372/402/373 16/16/16
f 373/403/374 374/404/375 173/173/174
f 373/403/374 173/173/174 168/168/169
f 168/168/169 375/405/376 373/403/374
f 375/405/376 168/168/169 355/385/356
f 355/385/356 376/406/377 375/405/376
f 376/406/377 355/385/356 354/384/355
f 354/384/355 377/407/378 376/406/377
f 377/407/378 354/384/355 357/387/358
f 357/387/358 378/408/379 377/407/378
f 378/408/379 357/387/358 356/386/357
f 356/386/357 379/409/380 378/408/379
f 362/392/363 379/409/380 356/386/357
f 362/392/363 360/390/361 379/409/380
f 380/410/381 360/390/361 359/389/360
f 381/411/382 365/395/366 364/394/365
f 382/412/383 49/49/49 383/413/384
f 40/40/40 31/31/31 33/33/33
f 40/40/40 33/33/33 161/161/162
f 161/161/162 169/169/170 114/114/115
f 90/90/91 353/383/354 374/414/375
f 206/208/207 374/404/375 373/403/374
f 373/403/374 384/415/385 206/208/207
f 384/415/385 373/403/374 375/405/376
f 376/406/377 385/416/386 375/405/376
f 385/416/386 376/406/377 377/407/378
f 377/407/378 378/408/379 385/416/386
f 384/415/385 386/417/387 387/418/388
f 386/417/387 384/415/385 375/405/376
f 384/415/385 387/418/388 206/208/207
f 386/417/387 388/419/389 387/418/388
f 388/419/389 386/417/387 385/416/386
f 375/405/376 385/416/386 386/417/387
f 385/416/386 378/408/379 388/419/389
f 361/391/362 62/249/62 359/389/360
f 379/409/380 380/410/381 388/419/389
f 380/410/381 379/409/380 360/390/361
f 5/5/5 37/37/37 389/420/390
f 37/37/37 5/5/5 183/185/184
f 390/421/391 56/56/56 54/54/54
f 391/422/392 392/423/393 393/424/394
f 392/423/393 391/422/392 91/425/92
f 394/426/395 395/427/396 396/428/397
f 395/427/396 394/426/395 397/429/398
f 398/430/399 399/431/400 400/432/401
f 94/94/95 401/433/402 402/434/403
f 401/433/402 94/94/95 96/96/97
f 403/435/404 404/436/405 405/437/406
f 45/45/45 406/438/407 46/46/46
f 368/398/369 367/397/368 371/401/372
f 371/401/372 194/196/195 368/398/369
f 194/196/195 371/401/372 58/58/58
f 58/58/58 57/57/57 194/196/195
f 407/439/408 408/440/409 409/441/410
f 62/249/62 239/251/240 359/389/360
f 244/258/245 243/257/244 410/442/411
f 383/413/384 5/5/5 411/443/412
f 10/10/10 412/444/413 37/37/37
f 51/51/51 412/444/413 372/402/373
f 20/20/20 51/51/51 372/402/373
f 54/54/54 113/113/114 390/421/391
f 115/115/116 390/421/391 113/113/114
f 91/425/92 207/209/208 392/423/393
f 243/445/244 245/446/246 413/447/414
f 372/402/373 412/444/413 10/10/10
f 20/20/20 139/139/140 138/138/139
f 138/138/139 29/29/29 414/448/415
f 29/29/29 138/138/139 139/139/140
f 414/448/415 39/39/39 41/41/41
f 39/39/39 414/448/415 29/29/29
f 41/41/41 113/113/114 54/54/54
f 91/91/92 415/449/416 89/89/90
f 207/209/208 91/425/92 205/207/206
f 380/410/381 359/389/360 239/251/240
f 416/450/417 417/451/418 418/452/419
f 244/258/245 418/452/419 417/451/418
f 419/453/420 418/452/419 244/258/245
f 417/451/418 245/259/246 244/258/245
f 245/446/246 420/454/421 421/455/422
f 421/455/422 413/447/414 245/446/246
f 5/5/5 383/413/384 49/49/49
f 94/94/95 246/260/247 95/95/96
f 399/431/400 398/430/399 422/456/423
f 423/457/424 400/432/401 424/458/425
f 425/459/426 398/430/399 400/432/401
f 422/456/423 426/460/427 427/461/428
f 426/460/427 422/456/423 381/462/382
f 363/393/364 365/395/366 423/463/424
f 423/457/424 425/459/426 400/432/401
f 395/427/396 397/429/398 428/464/429
f 408/440/409 246/260/247 94/94/95
f 246/260/247 429/465/430 430/466/431
f 48/48/48 43/43/43 431/467/432
f 37/37/37 432/468/433 389/420/390
f 50/50/50 37/37/37 412/444/413
f 138/138/139 51/51/51 20/20/20
f 138/138/139 414/448/415 53/53/53
f 54/54/54 53/53/53 414/448/415
f 433/469/434 415/449/416 204/470/205
f 204/206/205 391/422/392 203/205/204
f 90/90/91 89/89/90 352/382/353
f 62/62/62 61/61/61 238/471/239
f 239/251/240 434/472/435 380/410/381
f 435/473/436 436/474/437 437/475/438
f 184/186/185 438/476/439 439/477/440
f 440/478/441 441/479/442 442/480/443
f 174/174/175 8/8/8 443/481/444
f 51/51/51 50/50/50 412/444/413
f 414/448/415 41/41/41 54/54/54
f 56/56/56 390/421/391 116/116/117
f 206/208/207 387/418/388 444/482/445
f 444/482/445 207/209/208 206/208/207
f 388/419/389 378/408/379 379/409/380
f 445/483/446 446/484/447 447/485/448
f 446/484/447 445/483/446 448/486/449
f 448/486/449 449/487/450 446/484/447
f 449/487/450 448/486/449 450/488/451
f 411/443/412 370/400/371 383/413/384
f 411/443/412 389/420/390 451/489/452
f 411/443/412 451/489/452 58/58/58
f 58/58/58 451/489/452 59/59/59
f 370/400/371 58/58/58 371/401/372
f 58/58/58 370/400/371 411/443/412
f 389/420/390 411/443/412 5/5/5
f 207/209/208 444/482/445 393/424/394
f 446/484/447 444/482/445 387/418/388
f 452/490/453 387/418/388 388/419/389
f 207/209/208 393/424/394 392/423/393
f 453/491/454 387/418/388 452/490/453
f 449/487/450 393/424/394 444/482/445
f 444/482/445 446/484/447 449/487/450
f 447/485/448 452/490/453 388/419/389
f 453/491/454 446/484/447 387/418/388
f 203/205/204 393/424/394 449/487/450
f 393/424/394 203/205/204 391/422/392
f 453/491/454 447/485/448 446/484/447
f 447/485/448 453/491/454 452/490/453
f 199/201/200 449/487/450 450/488/451
f 449/487/450 199/201/200 203/205/204
f 202/204/203 450/488/451 454/492/455
f 450/488/451 202/204/203 199/201/200
f 243/257/244 455/493/456 410/442/411
f 383/413/384 370/400/371 382/412/383
f 243/445/244 431/467/432 456/494/457
f 38/38/38 37/37/37 183/185/184
f 38/38/38 183/185/184 8/8/8
f 8/8/8 183/185/184 443/481/444
f 1/1/1 440/478/441 442/480/443
f 184/186/185 439/477/440 1/1/1
f 435/473/436 437/475/438 457/495/458
f 240/254/241 176/253/177 268/286/269
f 458/496/459 179/179/180 268/286/269
f 77/77/78 182/184/183 181/183/182
f 239/251/240 416/450/417 434/472/435
f 434/472/435 416/450/417 418/452/419
f 434/472/435 418/452/419 419/453/420
f 459/497/460 396/428/397 445/483/446
f 395/427/396 428/464/429 460/498/461
f 402/434/403 401/433/402 461/499/462
f 187/189/188 189/191/190 462/500/463
f 463/501/464 405/502/406 464/503/465
f 465/504/466 464/503/465 405/502/406
f 191/193/192 198/200/199 192/194/193
f 368/398/369 466/505/467 369/399/370
f 368/398/369 194/196/195 466/505/467
f 194/196/195 467/506/468 466/505/467
f 194/196/195 193/195/194 467/506/468
f 466/505/467 467/506/468 364/394/365
f 466/505/467 364/394/365 369/399/370
f 198/200/199 197/199/198 192/194/193
f 468/507/469 469/508/470 470/509/471
f 402/434/403 461/499/462 471/510/472
f 395/427/396 460/498/461 424/458/425
f 396/428/397 424/458/425 400/432/401
f 424/458/425 396/428/397 395/427/396
f 396/428/397 400/432/401 472/511/473
f 467/506/468 193/195/194 381/411/382
f 193/195/194 473/512/474 381/411/382
f 467/506/468 381/411/382 364/394/365
f 364/394/365 366/396/367 369/399/370
f 463/501/464 464/503/465 196/198/197
f 187/189/188 347/377/348 253/268/254
f 347/377/348 187/189/188 462/500/463
f 399/431/400 472/511/473 400/432/401
f 396/428/397 472/511/473 445/483/446
f 474/513/475 472/511/473 399/431/400
f 472/511/473 474/513/475 445/483/446
f 381/462/382 422/456/423 398/430/399
f 365/514/366 398/430/399 425/459/426
f 398/430/399 365/514/366 381/462/382
f 425/459/426 423/457/424 365/514/366
f 251/266/252 195/515/196 475/516/476
f 251/266/252 345/376/346 195/515/196
f 468/507/469 463/517/464 196/518/197
f 463/517/464 468/507/469 470/509/471
f 463/517/464 470/509/471 405/437/406
f 476/519/477 404/436/405 403/435/404
f 250/265/251 47/520/47 248/263/249
f 47/520/47 250/265/251 93/521/94
f 246/260/247 43/522/43 92/261/93
f 246/260/247 430/466/431 43/523/43
f 43/523/43 430/466/431 431/524/432
f 456/525/457 430/466/431 455/493/456
f 430/466/431 456/525/457 431/524/432
f 455/493/456 243/257/244 456/525/457
f 420/526/421 245/259/246 417/451/418
f 272/527/273 271/528/272 241/255/242
f 274/294/275 241/255/242 271/528/272
f 242/256/243 272/527/273 241/255/242
f 477/529/478 267/288/268 265/530/266
f 262/277/263 266/531/267 180/180/181
f 361/391/362 60/532/60 62/249/62
f 60/532/60 80/80/81 131/533/132
f 128/534/129 478/535/479 235/246/236
f 235/246/236 237/248/238 128/534/129
f 234/245/235 150/244/151 159/322/160
f 292/536/293 231/240/232 297/318/298
f 283/537/284 229/238/230 228/237/229
f 127/538/128 222/229/223 223/230/224
f 140/140/141 68/539/68 67/540/67
f 125/541/126 124/217/125 211/215/212
f 211/215/212 73/542/73 75/543/480
f 73/542/73 211/215/212 210/214/211
f 331/544/332 74/358/74 311/335/312
f 331/544/332 311/335/312 329/545/330
f 329/545/330 310/334/311 479/546/481
f 310/334/311 329/545/330 311/335/312
f 120/210/121 320/547/321 321/347/322
f 166/212/167 325/548/326 167/549/168
f 90/550/91 374/404/375 206/208/207
f 206/208/207 205/207/206 90/550/91
f 205/207/206 91/425/92 90/550/91
f 415/551/416 91/425/92 391/422/392
f 391/422/392 204/206/205 415/551/416
f 204/206/205 201/203/202 200/202/201
f 480/552/482 481/553/483 427/461/428
f 481/553/483 422/456/423 427/461/428
f 422/456/423 481/553/483 399/431/400
f 454/492/455 450/488/451 481/553/483
f 482/554/484 239/251/240 238/250/239
f 238/250/239 483/555/485 482/554/484
f 483/556/485 238/471/239 61/61/61
f 175/175/176 174/174/175 441/479/442
f 441/479/442 174/174/175 443/481/444
f 421/455/422 484/557/486 271/291/272
f 421/455/422 420/454/421 484/557/486
f 416/450/417 485/558/487 417/451/418
f 272/527/273 242/256/243 264/559/265
f 3/3/3 256/271/257 255/270/256
f 256/271/257 3/3/3 2/2/2
f 255/270/256 184/186/185 3/3/3
f 181/183/182 134/252/135 260/275/261
f 181/183/182 260/275/261 486/560/488
f 486/560/488 77/77/78 181/183/182
f 77/77/78 259/274/260 78/78/79
f 486/560/488 259/274/260 77/77/78
f 134/252/135 261/276/262 260/275/261
f 134/134/135 263/280/264 261/279/262
f 438/476/439 487/561/489 488/562/490
f 487/561/489 438/476/439 184/186/185
f 184/186/185 255/270/256 487/561/489
f 79/79/80 274/294/275 485/558/487
f 484/563/486 274/294/275 271/528/272
f 1/1/1 4/4/4 489/564/491
f 442/480/443 4/4/4 1/1/1
f 440/478/441 175/175/176 441/479/442
f 440/478/441 490/565/492 175/175/176
f 275/295/276 491/566/493 482/554/484
f 491/566/493 275/295/276 182/184/183
f 491/566/493 182/184/183 485/558/487
f 485/558/487 182/184/183 79/79/80
f 417/451/418 485/558/487 274/294/275
f 274/294/275 420/567/421 417/451/418
f 420/567/421 274/294/275 484/563/486
f 49/49/49 489/564/491 6/6/6
f 4/4/4 6/6/6 489/564/491
f 442/480/443 443/481/444 183/185/184
f 442/480/443 183/185/184 4/4/4
f 441/479/442 443/481/444 442/480/443
f 483/556/485 492/568/494 275/569/276
f 275/295/276 482/554/484 483/555/485
f 482/554/484 491/566/493 239/251/240
f 239/251/240 491/566/493 416/450/417
f 485/558/487 416/450/417 491/566/493
f 458/496/459 268/286/269 267/288/268
f 435/473/436 457/495/458 257/272/258
f 266/284/267 269/289/270 270/290/271
f 270/570/271 180/180/181 266/531/267
f 180/180/181 270/570/271 177/181/178
f 240/254/241 179/179/180 177/181/178
f 179/179/180 240/254/241 268/286/269
f 458/496/459 267/288/268 477/529/478
f 296/317/297 295/316/296 153/153/154
f 153/153/154 295/316/296 493/571/495
f 295/316/296 494/572/496 493/571/495
f 237/248/238 494/572/496 290/573/291
f 290/573/291 291/574/292 237/248/238
f 276/296/277 495/575/497 496/576/498
f 286/306/287 497/577/499 498/578/500
f 498/578/500 283/303/284 286/306/287
f 229/579/230 499/580/501 292/313/293
f 229/238/230 292/536/293 297/318/298
f 297/318/298 500/581/502 229/238/230
f 500/581/502 296/317/297 153/153/154
f 153/153/154 493/571/495 160/160/161
f 493/571/495 236/247/237 160/160/161
f 236/247/237 493/571/495 494/572/496
f 494/572/496 237/248/238 236/247/237
f 128/534/129 237/248/238 291/574/292
f 128/128/129 291/311/292 129/129/130
f 495/575/497 276/296/277 129/129/130
f 287/307/288 276/296/277 496/576/498
f 287/307/288 496/576/498 497/577/499
f 497/577/499 286/306/287 287/307/288
f 284/304/285 286/306/287 283/303/284
f 499/580/501 229/579/230 283/303/284
f 229/238/230 500/581/502 155/155/156
f 155/155/156 500/581/502 153/153/154
f 290/582/291 299/320/300 298/319/299
f 147/147/148 303/326/304 152/152/153
f 303/326/304 147/147/148 15/15/15
f 152/152/153 501/583/503 147/147/148
f 232/241/233 302/584/303 151/243/152
f 232/241/233 151/243/152 301/324/302
f 301/324/302 233/242/234 294/315/295
f 233/242/234 300/323/301 294/315/295
f 295/316/296 300/323/301 494/572/496
f 300/323/301 290/573/291 494/572/496
f 290/573/291 300/323/301 299/321/300
f 14/14/14 298/319/299 303/326/304
f 303/326/304 15/15/15 14/14/14
f 148/148/149 147/147/148 501/583/503
f 302/325/303 232/585/233 231/312/232
f 232/241/233 301/324/302 230/239/231
f 230/239/231 301/324/302 294/315/295
f 294/315/295 300/323/301 295/316/296
f 82/82/83 280/300/281 279/299/280
f 279/299/280 502/586/504 82/82/83
f 502/586/504 279/299/280 235/246/236
f 235/246/236 478/535/479 502/586/504
f 12/12/12 278/298/279 277/297/278
f 278/298/279 12/12/12 11/11/11
f 277/297/278 100/100/101 12/12/12
f 285/305/286 100/100/101 277/297/278
f 284/304/285 100/100/101 285/305/286
f 227/587/228 281/301/282 283/303/284
f 227/236/228 283/588/284 228/237/229
f 227/236/228 154/154/155 158/158/159
f 154/154/155 227/236/228 228/237/229
f 158/158/159 280/300/281 156/156/157
f 280/300/281 82/82/83 81/81/82
f 80/80/81 82/82/83 502/586/504
f 502/586/504 131/533/132 80/80/81
f 131/533/132 502/586/504 478/535/479
f 478/589/479 132/132/133 131/131/132
f 98/98/99 278/298/279 11/11/11
f 226/590/227 281/301/282 227/587/228
f 281/301/282 226/590/227 503/591/505
f 81/81/82 156/156/157 280/300/281
f 504/592/506 223/230/224 219/226/220
f 102/102/103 505/593/507 23/23/23
f 24/24/24 506/594/508 304/327/305
f 105/105/106 304/327/305 143/143/144
f 304/327/305 105/105/106 24/24/24
f 507/595/509 105/105/106 143/143/144
f 215/596/216 69/69/69 68/68/68
f 68/539/68 508/597/510 215/220/216
f 509/598/511 219/226/220 510/599/512
f 510/599/512 221/228/222 220/227/221
f 221/228/222 510/599/512 219/226/220
f 219/226/220 223/230/224 221/228/222
f 223/230/224 504/592/506 127/538/128
f 126/126/127 504/600/506 511/601/513
f 504/600/506 126/126/127 127/127/128
f 24/24/24 505/593/507 506/594/508
f 505/593/507 24/24/24 23/23/23
f 508/597/510 213/218/214 215/220/216
f 213/218/214 508/597/510 509/598/511
f 213/218/214 509/598/511 512/602/514
f 512/602/514 509/598/511 510/599/512
f 512/602/514 510/599/512 220/227/221
f 513/603/515 216/223/217 71/222/71
f 513/603/515 71/222/71 514/604/516
f 145/145/146 28/28/28 103/103/104
f 146/146/147 144/144/145 28/28/28
f 146/146/147 307/331/308 144/144/145
f 306/330/307 305/329/306 67/67/67
f 67/540/67 305/328/306 141/141/142
f 142/142/143 216/223/217 513/603/515
f 142/142/143 513/603/515 217/224/218
f 217/224/218 513/603/515 218/225/219
f 218/225/219 514/604/516 504/592/506
f 514/604/516 218/225/219 513/603/515
f 504/600/506 514/605/516 511/601/513
f 27/27/27 103/103/104 28/28/28
f 515/606/517 144/144/145 307/331/308
f 144/144/145 515/606/517 143/143/144
f 306/330/307 67/67/67 69/69/69
f 140/140/141 67/540/67 141/141/142
f 141/141/142 216/223/217 142/142/143
f 340/369/341 84/84/85 83/83/84
f 84/84/85 340/369/341 339/368/340
f 339/368/340 66/231/66 84/84/85
f 339/607/340 127/127/128 66/66/66
f 338/367/339 64/64/64 66/66/66
f 66/66/66 127/127/128 338/367/339
f 337/366/338 21/21/21 101/101/102
f 19/19/19 337/366/338 24/24/24
f 337/366/338 19/19/19 21/21/21
f 24/24/24 139/139/140 19/19/19
f 516/608/518 24/24/24 104/104/105
f 24/24/24 516/608/518 139/139/140
f 104/104/105 344/373/345 516/608/518
f 106/106/107 214/609/215 124/124/125
f 124/217/125 214/219/215 343/372/344
f 124/217/125 343/372/344 342/371/343
f 342/371/343 341/370/342 358/388/359
f 341/370/342 83/83/84 358/388/359
f 83/83/84 341/370/342 340/369/341
f 517/610/519 139/139/140 516/608/518
f 518/611/520 516/608/518 344/373/345
f 516/608/518 518/611/520 517/610/519
f 123/123/124 106/106/107 124/124/125
f 124/217/125 342/371/343 212/216/213
f 342/371/343 358/388/359 212/216/213
f 519/612/521 323/349/324 208/211/209
f 208/211/209 322/348/323 519/612/521
f 321/347/322 320/547/321 310/334/311
f 325/548/326 166/212/167 323/349/324
f 317/341/318 323/349/324 519/612/521
f 310/334/311 519/612/521 322/348/323
f 310/334/311 322/348/323 321/347/322
f 165/165/166 167/167/168 163/163/164
f 163/163/164 167/167/168 316/340/317
f 324/350/325 316/340/317 167/167/168
f 318/344/319 324/350/325 325/351/326
f 318/342/319 325/548/326 323/349/324
f 318/342/319 323/349/324 317/341/318
f 314/338/315 312/336/313 333/360/334
f 309/333/310 316/340/317 111/111/112
f 316/340/317 112/112/113 111/111/112
f 112/112/113 313/345/314 336/363/337
f 332/359/333 314/338/315 333/360/334
f 311/335/312 333/360/334 312/336/313
f 308/332/309 171/171/172 326/352/327
f 171/171/172 308/332/309 309/333/310
f 111/111/112 171/171/172 309/333/310
f 313/337/314 335/362/336 336/613/337
f 335/362/336 313/337/314 315/339/316
f 315/339/316 332/359/333 335/362/336
f 315/339/316 314/338/315 332/359/333
f 172/172/173 88/88/89 168/168/169
f 88/88/89 74/358/74 86/86/87
f 36/36/36 35/35/35 327/353/328
f 36/36/36 327/353/328 520/614/522
f 520/614/522 112/112/113 521/615/523
f 119/119/120 336/363/337 117/117/118
f 117/117/118 334/365/335 118/118/119
f 117/117/118 336/363/337 334/365/335
f 334/361/335 332/359/333 172/172/173
f 73/542/73 86/86/87 74/358/74
f 76/76/77 74/74/74 331/357/332
f 328/354/329 35/35/35 109/109/110
f 170/170/171 36/36/36 520/614/522
f 36/36/36 170/170/171 162/162/163
f 520/614/522 521/615/523 170/170/171
f 118/616/119 334/361/335 173/173/174
f 173/173/174 334/361/335 172/172/173
f 403/435/404 348/378/349 249/264/250
f 476/617/477 47/47/47 46/46/46
f 465/504/466 522/618/524 523/619/525
f 523/619/525 464/503/465 465/504/466
f 196/198/197 464/503/465 523/619/525
f 469/508/470 524/620/526 470/509/471
f 197/199/198 196/198/197 192/194/193
f 346/375/347 196/621/197 345/376/346
f 347/377/348 469/508/470 346/375/347
f 462/500/463 469/508/470 347/377/348
f 462/500/463 189/191/190 469/508/470
f 191/193/192 525/622/527 526/623/528
f 526/623/528 527/624/529 191/193/192
f 528/625/530 527/624/529 526/623/528
f 475/626/476 527/624/529 528/625/530
f 252/267/253 251/266/252 529/627/531
f 530/628/532 252/267/253 529/627/531
f 530/628/532 531/629/533 252/267/253
f 350/380/351 532/630/534 351/381/352
f 532/630/534 350/380/351 247/262/248
f 247/262/248 93/521/94 532/630/534
f 93/93/94 247/631/248 42/42/42
f 42/42/42 45/45/45 93/93/94
f 525/622/527 533/632/535 526/623/528
f 251/633/252 475/626/476 528/625/530
f 531/629/533 530/628/532 534/634/536
f 534/634/536 535/635/537 531/629/533
f 529/627/531 251/266/252 536/636/538
f 536/636/538 251/266/252 537/637/539
f 530/628/532 529/627/531 471/510/472
f 471/510/472 529/627/531 536/636/538
f 461/499/462 530/628/532 471/510/472
f 534/634/536 530/628/532 461/499/462
f 534/634/536 461/499/462 401/433/402
f 401/433/402 535/635/537 534/634/536
f 351/381/352 401/433/402 96/96/97
f 350/380/351 96/96/97 95/95/96
f 95/95/96 247/262/248 350/380/351
f 92/92/93 42/42/42 247/631/248
f 526/623/528 533/632/535 538/638/540
f 528/625/530 526/623/528 538/638/540
f 539/639/541 528/625/530 538/638/540
f 363/393/364 528/625/530 539/639/541
f 251/633/252 528/625/530 537/640/539
f 537/640/539 528/625/530 363/393/364
f 192/194/193 196/198/197 523/619/525
f 522/618/524 190/192/191 192/194/193
f 192/194/193 523/619/525 522/618/524
f 248/263/249 476/519/477 403/435/404
f 476/519/477 248/263/249 47/520/47
f 249/264/250 248/263/249 403/435/404
f 524/620/526 189/191/190 348/378/349
f 469/508/470 189/191/190 524/620/526
f 469/508/470 468/507/469 346/375/347
f 468/507/469 196/621/197 346/375/347
f 59/59/59 540/641/542 541/642/543
f 137/137/138 542/643/544 138/138/139
f 543/644/545 544/645/546 545/646/547
f 544/645/546 543/644/545 53/53/53
f 540/641/542 59/59/59 546/647/548
f 547/648/549 433/469/434 200/649/201
f 137/137/138 53/53/53 543/644/545
f 138/138/139 542/643/544 52/52/52
f 548/650/550 545/646/547 544/645/546
f 549/651/551 541/642/543 540/641/542
f 52/52/52 550/652/552 551/653/553
f 546/647/548 451/489/452 432/468/433
f 451/489/452 546/647/548 59/59/59
f 552/654/554 202/204/203 480/552/482
f 551/653/553 550/652/552 432/468/433
f 553/655/555 541/642/543 554/656/556
f 554/656/556 473/512/474 553/655/555
f 473/512/474 554/656/556 555/657/557
f 556/658/558 200/202/201 202/204/203
f 547/648/549 200/649/201 556/659/558
f 557/660/559 546/647/548 550/652/552
f 558/661/560 559/662/561 560/663/562
f 559/662/561 558/661/560 561/664/563
f 560/663/562 562/665/564 563/666/565
f 560/663/562 563/666/565 564/667/566
f 564/668/566 563/669/565 565/670/567
f 566/671/568 567/672/569 565/670/567
f 568/673/570 569/674/571 570/675/572
f 568/673/570 570/675/572 571/676/573
f 568/673/570 571/676/573 572/677/574
f 573/678/575 549/651/551 540/641/542
f 566/671/568 480/552/482 427/461/428
f 555/657/557 570/675/572 569/674/571
f 570/675/572 555/657/557 554/656/556
f 554/656/556 571/676/573 570/675/572
f 541/642/543 571/676/573 554/656/556
f 549/651/551 571/676/573 541/642/543
f 546/647/548 573/678/575 540/641/542
f 432/468/433 550/652/552 546/647/548
f 550/652/552 52/52/52 542/643/544
f 542/643/544 137/137/138 574/679/576
f 575/680/577 574/679/576 543/644/545
f 543/644/545 574/679/576 137/137/138
f 545/646/547 575/680/577 543/644/545
f 545/646/547 561/664/563 575/680/577
f 561/664/563 548/650/550 559/662/561
f 548/650/550 561/664/563 545/646/547
f 562/665/564 556/659/558 563/666/565
f 562/665/564 547/648/549 556/659/558
f 563/669/565 556/658/558 202/204/203
f 563/669/565 202/204/203 552/654/554
f 563/669/565 552/654/554 565/670/567
f 552/654/554 566/671/568 565/670/567
f 566/671/568 552/654/554 480/552/482
f 572/677/574 571/676/573 576/681/578
f 549/651/551 573/678/575 576/681/578
f 573/678/575 546/647/548 557/660/559
f 577/682/579 578/683/580 574/679/576
f 574/679/576 578/683/580 542/643/544
f 575/680/577 577/682/579 574/679/576
f 577/682/579 575/680/577 579/684/581
f 561/664/563 579/684/581 575/680/577
f 561/664/563 558/661/560 579/684/581
f 10/10/10 7/7/7 12/12/12
f 372/402/373 10/10/10 100/100/101
f 100/100/101 10/10/10 12/12/12
f 16/16/16 372/402/373 100/100/101
f 99/99/100 65/65/65 16/16/16
f 503/591/505 63/63/63 65/65/65
f 503/591/505 226/590/227 63/63/63
f 226/235/227 157/157/158 63/232/63
f 157/157/158 224/233/225 63/232/63
f 157/157/158 156/156/157 224/233/225
f 360/390/361 156/156/157 81/81/82
f 81/81/82 361/391/362 360/390/361
f 361/391/362 81/81/82 80/80/81
f 80/80/81 60/532/60 361/391/362
f 7/7/7 97/97/98 98/98/99
f 22/22/22 19/19/19 17/17/17
f 32/32/32 139/139/140 517/610/519
f 108/108/109 517/610/519 518/611/520
f 517/610/519 108/108/109 32/32/32
f 125/125/126 75/75/76 123/123/124
f 125/541/126 211/215/212 75/543/76
f 209/213/210 211/215/212 212/216/213
f 209/213/210 212/216/213 358/388/359
f 83/83/84 85/85/86 225/234/226
f 63/232/63 225/234/226 85/85/86
f 34/34/34 33/33/33 30/30/30
f 34/34/34 162/162/163 33/33/33
f 173/685/174 374/414/375 118/118/119
f 210/214/211 87/87/88 86/86/87
f 210/214/211 86/86/87 73/542/73
f 109/109/110 30/30/30 107/107/108
f 30/30/30 109/109/110 34/34/34
f 473/512/474 193/195/194 553/655/555
f 541/642/543 553/655/555 193/195/194
f 57/57/57 541/642/543 193/195/194
f 541/642/543 57/57/57 59/59/59
f 389/420/390 432/468/433 451/489/452
f 37/37/37 551/653/553 432/468/433
f 52/52/52 551/653/553 37/37/37
f 51/51/51 138/138/139 52/52/52
f 53/53/53 55/55/55 544/645/546
f 544/645/546 55/55/55 548/650/550
f 433/469/434 204/470/205 200/649/201
f 202/204/203 454/492/455 480/552/482
f 381/411/382 473/512/474 426/686/427
f 580/687/582 569/674/571 568/673/570
f 555/657/557 426/686/427 473/512/474
f 555/688/557 427/461/428 426/460/427
f 427/461/428 569/689/571 566/671/568
f 569/689/571 427/461/428 555/688/557
f 566/671/568 580/690/582 567/672/569
f 580/690/582 566/671/568 569/689/571
f 455/493/456 407/439/408 581/691/583
f 581/691/583 419/453/420 455/493/456
f 582/692/584 581/691/583 407/439/408
f 447/485/448 582/692/584 445/483/446
f 582/692/584 583/693/585 581/691/583
f 244/258/245 410/442/411 419/453/420
f 410/442/411 455/493/456 419/453/420
f 447/485/448 583/693/585 582/692/584
f 581/691/583 380/410/381 434/472/435
f 581/691/583 434/472/435 419/453/420
f 583/693/585 388/419/389 581/691/583
f 581/691/583 388/419/389 380/410/381
f 447/485/448 388/419/389 583/693/585
f 394/426/395 396/428/397 459/497/460
f 455/493/456 430/466/431 429/465/430
f 454/492/455 481/553/483 480/552/482
f 399/431/400 481/553/483 450/488/451
f 450/488/451 474/513/475 399/431/400
f 474/513/475 450/488/451 448/486/449
f 448/486/449 445/483/446 474/513/475
f 459/497/460 445/483/446 582/692/584
f 407/439/408 409/441/410 582/692/584
f 459/497/460 582/692/584 409/441/410
f 409/441/410 394/426/395 459/497/460
f 409/441/410 397/429/398 394/426/395
f 397/429/398 409/441/410 408/440/409
f 397/429/398 408/440/409 94/94/95
f 535/635/537 401/433/402 351/381/352
f 188/190/189 349/379/350 348/378/349
f 524/620/526 403/435/404 470/509/471
f 403/435/404 524/620/526 348/378/349
f 405/437/406 470/509/471 403/435/404
f 476/617/477 465/504/466 404/694/405
f 465/504/466 405/502/406 404/694/405
f 476/617/477 46/46/46 522/618/524
f 522/618/524 465/504/466 476/617/477
f 46/46/46 406/438/407 190/192/191
f 190/192/191 522/618/524 46/46/46
f 190/192/191 406/438/407 191/193/192
f 45/45/45 191/193/192 406/438/407
f 191/193/192 45/45/45 525/622/527
f 42/42/42 525/622/527 45/45/45
f 525/622/527 42/42/42 533/632/535
f 44/44/44 533/632/535 42/42/42
f 576/681/578 571/676/573 549/651/551
f 413/447/414 584/695/586 243/445/244
f 272/292/273 264/281/265 273/293/274
f 136/136/137 263/280/264 134/134/135
f 492/568/494 136/136/137 135/135/136
f 478/589/479 278/298/279 132/132/133
f 585/696/587 129/129/130 291/311/292
f 298/319/299 159/159/160 303/326/304
f 501/583/503 149/149/150 302/325/303
f 231/312/232 293/314/294 586/697/588
f 283/303/284 293/314/294 499/580/501
f 99/99/100 282/302/283 281/301/282
f 281/301/282 503/591/505 99/99/100
f 145/145/146 514/605/516 71/71/71
f 71/71/71 70/70/70 145/145/146
f 72/72/72 306/330/307 70/70/70
f 330/356/331 76/76/77 331/357/332
f 330/356/331 329/355/330 328/354/329
f 165/165/166 122/122/123 121/121/122
f 121/121/122 167/167/168 165/165/166
f 336/363/337 119/119/120 112/112/113
f 119/119/120 118/118/119 374/414/375
f 374/414/375 353/383/354 119/119/120
f 89/89/90 587/698/589 352/382/353
f 588/699/590 89/89/90 415/449/416
f 89/89/90 588/699/590 587/698/589
f 415/449/416 433/469/434 588/699/590
f 455/493/456 429/465/430 408/440/409
f 402/434/403 471/510/472 460/498/461
f 471/510/472 536/636/538 460/498/461
f 536/636/538 589/700/591 460/498/461
f 536/636/538 537/637/539 589/700/591
f 590/701/592 533/632/535 44/44/44
f 590/701/592 44/44/44 48/48/48
f 48/48/48 431/467/432 591/702/593
f 243/445/244 591/702/593 431/467/432
f 584/695/586 413/447/414 592/703/594
f 593/704/595 421/455/422 271/291/272
f 271/291/272 273/293/274 593/704/595
f 258/273/259 273/293/274 264/281/265
f 265/283/266 594/705/596 264/281/265
f 265/283/266 595/706/597 594/705/596
f 186/188/187 595/706/597 265/283/266
f 186/188/187 185/187/186 595/706/597
f 492/568/494 483/556/485 175/175/176
f 61/61/61 175/175/176 483/556/485
f 596/707/598 175/175/176 61/61/61
f 133/133/134 596/707/598 61/61/61
f 97/97/98 133/133/134 60/60/60
f 97/97/98 60/60/60 132/132/133
f 130/130/131 278/298/279 478/589/479
f 298/319/299 14/14/14 290/582/291
f 149/149/150 501/583/503 152/152/153
f 586/697/588 302/325/303 231/312/232
f 283/303/284 282/302/283 284/304/285
f 282/302/283 99/99/100 284/304/285
f 69/69/69 307/331/308 306/330/307
f 515/606/517 69/69/69 507/595/509
f 106/106/107 507/595/509 215/596/216
f 123/123/124 344/373/345 106/106/107
f 518/611/520 344/373/345 123/123/124
f 75/75/76 108/108/109 123/123/124
f 109/109/110 75/75/76 76/76/77
f 326/352/327 329/355/330 308/332/309
f 479/708/481 308/332/309 329/355/330
f 320/346/321 479/708/481 310/709/311
f 165/165/166 320/346/321 122/122/123
f 112/112/113 319/343/320 313/345/314
f 116/116/117 588/699/590 433/469/434
f 548/650/550 433/469/434 547/648/549
f 547/648/549 562/665/564 548/650/550
f 429/465/430 246/260/247 408/440/409
f 460/498/461 428/464/429 402/434/403
f 537/637/539 423/457/424 589/700/591
f 366/396/367 363/393/364 539/639/541
f 366/396/367 539/639/541 538/638/540
f 533/632/535 597/710/599 538/638/540
f 533/632/535 367/397/368 597/710/599
f 367/397/368 533/632/535 590/701/592
f 48/48/48 591/702/593 598/711/600
f 598/711/600 590/701/592 48/48/48
f 584/695/586 591/702/593 243/445/244
f 413/447/414 593/704/595 592/703/594
f 593/704/595 413/447/414 421/455/422
f 273/293/274 258/273/259 2/2/2
f 264/281/265 257/272/258 258/273/259
f 257/272/258 264/281/265 594/705/596
f 594/705/596 595/706/597 257/272/258
f 599/712/601 185/187/186 176/176/177
f 178/178/179 599/712/601 176/176/177
f 599/712/601 178/178/179 436/474/437
f 269/289/270 436/474/437 178/178/179
f 487/561/489 266/284/267 263/280/264
f 488/562/490 263/280/264 136/136/137
f 438/476/439 136/136/137 492/568/494
f 492/568/494 175/175/176 490/565/492
f 133/133/134 9/9/9 596/707/598
f 133/133/134 97/97/98 9/9/9
f 278/298/279 130/130/131 276/296/277
f 130/130/131 129/129/130 276/296/277
f 99/99/100 503/591/505 65/65/65
f 22/22/22 17/17/17 65/65/65
f 101/101/102 65/65/65 64/64/64
f 65/65/65 101/101/102 22/22/22
f 64/64/64 337/366/338 101/101/102
f 337/366/338 64/64/64 338/367/339
f 338/367/339 23/23/23 337/366/338
f 23/23/23 126/126/127 600/713/602
f 511/601/513 600/713/602 126/126/127
f 145/145/146 70/70/70 146/146/147
f 70/70/70 306/330/307 146/146/147
f 69/69/69 515/606/517 307/331/308
f 123/123/124 108/108/109 518/611/520
f 107/107/108 108/108/109 75/75/76
f 75/75/76 109/109/110 107/107/108
f 328/354/329 76/76/77 330/356/331
f 308/332/309 479/708/481 164/164/165
f 316/340/317 319/343/320 112/112/113
f 169/169/170 119/119/120 353/383/354
f 353/383/354 352/382/353 114/114/115
f 115/115/116 352/382/353 587/698/589
f 352/382/353 115/115/116 114/114/115
f 116/116/117 587/698/589 588/699/590
f 559/662/561 548/650/550 562/665/564
f 562/665/564 560/663/562 559/662/561
f 408/440/409 407/439/408 455/493/456
f 397/429/398 94/94/95 402/434/403
f 428/464/429 397/429/398 402/434/403
f 460/498/461 589/700/591 424/458/425
f 589/700/591 423/457/424 424/458/425
f 537/640/539 363/393/364 423/463/424
f 369/399/370 366/396/367 538/638/540
f 597/710/599 367/397/368 369/399/370
f 597/710/599 369/399/370 538/638/540
f 598/711/600 370/400/371 367/397/368
f 367/397/368 590/701/592 598/711/600
f 370/400/371 598/711/600 591/702/593
f 591/702/593 584/695/586 382/412/383
f 382/412/383 370/400/371 591/702/593
f 584/695/586 592/703/594 49/49/49
f 49/49/49 382/412/383 584/695/586
f 592/703/594 593/704/595 49/49/49
f 593/704/595 489/564/491 49/49/49
f 489/564/491 593/704/595 273/293/274
f 273/293/274 2/2/2 489/564/491
f 256/271/257 2/2/2 258/273/259
f 435/473/436 257/272/258 595/706/597
f 595/706/597 185/187/186 435/473/436
f 436/474/437 435/473/436 599/712/601
f 185/187/186 599/712/601 435/473/436
f 437/475/438 436/474/437 269/289/270
f 266/284/267 437/475/438 269/289/270
f 437/475/438 266/284/267 487/561/489
f 263/280/264 488/562/490 487/561/489
f 438/476/439 488/562/490 136/136/137
f 8/8/8 175/175/176 596/707/598
f 9/9/9 8/8/8 596/707/598
f 98/98/99 97/97/98 132/132/133
f 132/132/133 278/298/279 98/98/99
f 495/575/497 129/129/130 585/696/587
f 289/309/290 495/575/497 585/696/587
f 148/148/149 501/583/503 302/325/303
f 148/148/149 302/325/303 586/697/588
f 293/314/294 283/303/284 498/578/500
f 100/100/101 284/304/285 99/99/100
f 23/23/23 600/713/602 102/102/103
f 511/601/513 103/103/104 102/102/103
f 103/103/104 511/601/513 514/605/516
f 514/605/516 145/145/146 103/103/104
f 143/143/144 515/606/517 507/595/509
f 105/105/106 507/595/509 106/106/107
f 76/76/77 328/354/329 109/109/110
f 326/352/327 328/354/329 329/355/330
f 479/708/481 320/346/321 164/164/165
f 320/346/321 165/165/166 164/164/165
f 521/615/523 112/112/113 119/119/120
f 521/615/523 119/119/120 170/170/171
f 169/169/170 170/170/171 119/119/120
f 353/383/354 114/114/115 169/169/170
f 587/698/589 390/421/391 115/115/116
f 390/421/391 587/698/589 116/116/117
f 55/55/55 116/116/117 433/469/434
f 433/469/434 548/650/550 55/55/55
f 532/630/534 93/521/94 250/265/251
f 351/381/352 250/265/251 249/264/250
f 250/265/251 351/381/352 532/630/534
f 349/379/350 351/381/352 249/264/250
f 351/381/352 349/379/350 535/635/537
f 188/190/189 535/635/537 349/379/350
f 535/635/537 188/190/189 187/189/188
f 187/189/188 531/629/533 535/635/537
f 531/629/533 187/189/188 252/267/253
f 253/268/254 252/267/253 187/189/188
f 475/626/476 195/197/196 198/200/199
f 475/626/476 198/200/199 527/624/529
f 527/624/529 198/200/199 191/193/192
f 2/2/2 1/1/1 489/564/491
f 1/1/1 439/477/440 440/478/441
f 440/478/441 439/477/440 438/476/439
f 440/478/441 438/476/439 490/565/492
f 490/565/492 438/476/439 492/568/494
f 492/568/494 135/135/136 275/569/276
f 487/561/489 457/495/458 437/475/438
f 180/180/181 179/179/180 260/275/261
f 179/179/180 486/560/488 260/275/261
f 458/496/459 486/560/488 179/179/180
f 458/496/459 477/529/478 259/274/260
f 242/256/243 259/274/260 477/529/478
f 242/256/243 477/529/478 265/530/266
f 457/495/458 255/270/256 254/269/255
f 457/495/458 487/561/489 255/270/256
f 260/275/261 262/277/263 180/180/181
f 486/560/488 458/496/459 259/274/260
f 254/269/255 257/272/258 457/495/458
f 498/578/500 13/13/13 148/148/149
f 498/578/500 148/148/149 586/697/588
f 293/314/294 498/578/500 586/697/588
f 496/576/498 289/309/290 288/308/289
f 289/309/290 496/576/498 495/575/497
f 496/576/498 288/308/289 13/13/13
f 13/13/13 497/577/499 496/576/498
f 13/13/13 498/578/500 497/577/499
f 499/580/501 293/314/294 292/313/293
f 500/581/502 297/318/298 230/239/231
f 230/239/231 296/317/297 500/581/502
f 291/311/292 14/14/14 585/696/587
f 585/696/587 14/14/14 289/309/290
f 130/130/131 478/589/479 128/128/129
f 504/592/506 219/226/220 218/225/219
f 601/714/603 217/224/218 219/226/220
f 601/714/603 142/142/143 217/224/218
f 68/539/68 140/140/141 142/142/143
f 215/596/216 507/595/509 69/69/69
f 508/597/510 68/539/68 142/142/143
f 508/597/510 142/142/143 601/714/603
f 508/597/510 601/714/603 509/598/511
f 509/598/511 601/714/603 219/226/220
f 600/713/602 511/601/513 102/102/103
f 505/593/507 102/102/103 27/27/27
f 506/594/508 27/27/27 304/327/305
f 27/27/27 506/594/508 505/593/507
f 106/106/107 215/596/216 214/609/215
f 343/372/344 214/219/215 213/218/214
f 213/218/214 512/602/514 343/372/344
f 343/372/344 512/602/514 341/370/342
f 512/602/514 220/227/221 341/370/342
f 339/368/340 220/227/221 222/229/223
f 127/127/128 339/607/340 222/715/223
f 23/23/23 25/25/25 337/366/338
f 319/343/320 324/350/325 318/344/319
f 317/341/318 519/612/521 312/336/313
f 312/336/313 519/612/521 310/334/311
f 319/343/320 316/340/317 324/350/325
f 112/112/113 520/614/522 110/110/111
f 88/88/89 333/360/334 311/335/312
f 327/353/328 326/352/327 171/171/172
f 171/171/172 520/614/522 327/353/328
f 110/110/111 520/614/522 171/171/172
f 567/716/604 602/717/605 565/718/606
f 572/719/607 602/717/605 568/720/608
f 576/721/609 602/717/605 572/719/607
f 573/722/610 602/717/605 576/721/609
f 557/723/611 602/717/605 573/722/610
f 550/724/612 602/717/605 557/723/611
f 542/725/613 602/717/605 550/724/612
f 578/726/580 602/717/605 542/725/613
f 577/727/579 602/717/605 578/726/580
f 579/728/581 602/717/605 577/727/579
f 558/729/560 602/717/605 579/728/581
f 560/730/614 602/717/605 558/729/560
f 564/731/615 602/717/605 560/730/614
f 565/718/606 602/717/605 564/731/615
f 568/720/608 602/717/605 580/732/616
f 580/732/616 602/717/605 567/716/604
